<svg xmlns="http://www.w3.org/2000/svg" xmlns:xlink="http://www.w3.org/1999/xlink" viewBox="0 0 513 792"><defs><style>.cls-1,.cls-13,.cls-8{fill:#0071bc;}.cls-1,.cls-11{stroke:#fff;}.cls-1,.cls-10,.cls-11,.cls-13,.cls-14,.cls-15,.cls-16,.cls-17,.cls-21,.cls-6,.cls-7{stroke-miterlimit:10;}.cls-2{fill:url(#linear-gradient);}.cls-16,.cls-18,.cls-20,.cls-3{fill:#202020;}.cls-10,.cls-4{fill:#00250a;}.cls-5{fill:url(#Sky);}.cls-13,.cls-16,.cls-17,.cls-21,.cls-6,.cls-7{stroke:#000;}.cls-6{fill:url(#radial-gradient);}.cls-7{fill:url(#radial-gradient-2);}.cls-9{clip-path:url(#clip-path);}.cls-10,.cls-14,.cls-15{stroke:#00250a;}.cls-10,.cls-16,.cls-17,.cls-21{stroke-width:0.5px;}.cls-11,.cls-17{fill:none;}.cls-12{fill:#fff;}.cls-14{fill:url(#radial-gradient-3);}.cls-15{fill:url(#radial-gradient-4);}.cls-18{font-size:32.73px;}.cls-18,.cls-20{font-family:ForteMT, Forte;}.cls-19{letter-spacing:-0.02em;}.cls-20{font-size:23.18px;}.cls-21{font-size:28.64px;font-family:PatrickHandSC-Regular, Patrick Hand SC;}.cls-22{opacity:0.46;}</style><linearGradient id="linear-gradient" x1="36.98" y1="748.28" x2="475.55" y2="44.47" gradientUnits="userSpaceOnUse"><stop offset="0.02" stop-color="#0075bf"/><stop offset="0.54" stop-color="#0074bd"/><stop offset="0.72" stop-color="#006fb6"/><stop offset="0.86" stop-color="#0067ab"/><stop offset="0.89" stop-color="#0064a6"/></linearGradient><linearGradient id="Sky" x1="26.55" y1="57.14" x2="93.73" y2="57.14" gradientUnits="userSpaceOnUse"><stop offset="0" stop-color="#cce0f4"/><stop offset="0.06" stop-color="#c3dcf2"/><stop offset="0.17" stop-color="#a9d2ee"/><stop offset="0.31" stop-color="#80c2e7"/><stop offset="0.46" stop-color="#47acde"/><stop offset="0.57" stop-color="#1e9cd7"/><stop offset="0.87" stop-color="#0075be"/><stop offset="0.99" stop-color="#005b97"/></linearGradient><radialGradient id="radial-gradient" cx="259.23" cy="611.45" r="291.82" gradientUnits="userSpaceOnUse"><stop offset="0.16" stop-color="#fff"/><stop offset="0.17" stop-color="#fafafa"/><stop offset="0.23" stop-color="#efefef"/><stop offset="0.31" stop-color="#e8e8e8"/><stop offset="0.53" stop-color="#e6e6e6"/><stop offset="0.59" stop-color="#e3e3e3"/><stop offset="0.65" stop-color="#d8d8d8"/><stop offset="0.7" stop-color="#c7c7c7"/><stop offset="0.75" stop-color="#afafaf"/><stop offset="0.8" stop-color="#8f8f8f"/><stop offset="0.85" stop-color="#696969"/><stop offset="0.88" stop-color="#4d4d4d"/></radialGradient><radialGradient id="radial-gradient-2" cx="259.23" cy="236.45" r="376.37" xlink:href="#radial-gradient"/><clipPath id="clip-path"><circle id="_Ellipse_" data-name="&lt;Ellipse&gt;" class="cls-1" cx="259.23" cy="236.68" r="141.82"/></clipPath><radialGradient id="radial-gradient-3" cx="44.45" cy="749.86" r="10.23" gradientUnits="userSpaceOnUse"><stop offset="0.24" stop-color="#006837" stop-opacity="0.4"/><stop offset="0.29" stop-color="#00552a" stop-opacity="0.57"/><stop offset="0.47" stop-color="#002f11" stop-opacity="0.91"/><stop offset="0.99" stop-color="#00250a"/></radialGradient><radialGradient id="radial-gradient-4" cx="468.7" cy="477.49" r="9.25" xlink:href="#radial-gradient-3"/></defs><title>Movement Cards</title><g id="Layer_4" data-name="Layer 4"><rect class="cls-2" x="6.95" y="6" width="499.09" height="780" rx="19" ry="19"/><path class="cls-3" d="M487,785.33c-.66,0-.81.11-.33.17a8.11,8.11,0,0,0,1.18,0l1,0c.36,0,.76-.11,1.2-.18a19.88,19.88,0,0,0,2.38-.88A20.51,20.51,0,0,1,487,785.33Z"/><path class="cls-3" d="M505.28,772.11c.1-.53.26-1.05.31-1.59l.16-1.57c0-1,0-1.94-.08-2.66-.13-1.43-.28-2-.43-.58a19.68,19.68,0,0,1-.07,4.7c-.08.66-.26,1.31-.4,2.09a26,26,0,0,1-.87,2.7,16.58,16.58,0,0,1-1.23,2.18c-.44.61-.86,1.12-1.19,1.52-.74.75-1.14,1.08-1,.82a7.08,7.08,0,0,1-1,1c-.23.2-.47.44-.74.65l-.87.64c-.57.47-1.26.81-1.83,1.2s-1.17.62-1.58.89a16.76,16.76,0,0,0,6.47-4.4,17.14,17.14,0,0,0,4.16-7.92C505.53,770.52,505.29,771.79,505.28,772.11Z"/><path class="cls-3" d="M506.51,414l0,2.31C506.49,415.72,506.5,414.92,506.51,414Z"/><path class="cls-3" d="M506.69,192.13a23.14,23.14,0,0,0,.07,2.48A21.53,21.53,0,0,0,506.69,192.13Z"/><path class="cls-3" d="M507.06,154.24l0,2.23C507.06,155.62,507.08,154.77,507.06,154.24Z"/><path class="cls-3" d="M506.51,414l.1-5.93C506.51,407.69,506.53,411.15,506.51,414Z"/><path class="cls-3" d="M505.19,722.8c0,1.24,0,2.27.09,3.22l0-3A1.43,1.43,0,0,1,505.19,722.8Z"/><path class="cls-3" d="M506.78,511.86v1.8c0,.53.08,1,.13,1.5Z"/><path class="cls-3" d="M506.83,586.93a10.12,10.12,0,0,0-.39-2.94c.12,1,.17,2.21.19,3.7C506.68,587.73,506.75,587.5,506.83,586.93Z"/><path class="cls-3" d="M506.33,706l0,2.11Z"/><path class="cls-3" d="M506.84,458.13a3.59,3.59,0,0,0,.1-.68A2,2,0,0,0,506.84,458.13Z"/><path class="cls-3" d="M400,784.68c-.06,0,0,0,0,.05C400.46,784.7,400.6,784.68,400,784.68Z"/><path class="cls-3" d="M487,786.07l-1.21,0c-.13.05-.26.11-.26.16Z"/><path class="cls-3" d="M507.42,84.9v.31C507.44,87,507.44,86,507.42,84.9Z"/><path class="cls-3" d="M5.79,80.87c.25-7.21.32,11.74.6.88C6.28,82.76,6,71.88,5.79,80.87Z"/><path class="cls-3" d="M505.23,720.86c0-1,0-2,0-3.08C505.23,719.18,505.23,720.13,505.23,720.86Z"/><path class="cls-3" d="M6.39,81.75h0l0-1.12Z"/><path class="cls-3" d="M417,4.8c.33,0,1,.09,1.63.12A11.32,11.32,0,0,0,417,4.8Z"/><path class="cls-3" d="M506.85,44.16l0-2.94Z"/><path class="cls-3" d="M355.23,5.2c-1.6,0-2.15-.06-4.33,0l.66,0C352.35,5.17,353.4,5.15,355.23,5.2Z"/><path class="cls-3" d="M290.9,5.2l1.19.06h2Z"/><path class="cls-3" d="M204.54,784.82c1.41.08,2.29.17,3,.25C206.52,784.87,216,784.8,204.54,784.82Z"/><path class="cls-3" d="M505.35,722.77a12.26,12.26,0,0,1-.12-1.91l0,2.14C505.29,723.18,505.33,723.23,505.35,722.77Z"/><path class="cls-3" d="M352.61,7.41l-10.22,0Z"/><path class="cls-3" d="M8.1,514l0,2.35C8.14,515.42,8.13,514.59,8.1,514Z"/><path class="cls-3" d="M312.07,7.41c-1.82-.1-3.76-.16-5.76-.19-.42,0-.91,0-1.19.07Z"/><path class="cls-3" d="M207.54,785.07h0Z"/><path class="cls-3" d="M274.85,784.4c-9.74,0-4.57.36-6.64.57-11.62.1-5.38-.27-9.33-.46-7.26.1-12.82.44-18.23.42-.4-.06-1.46-.08-.22-.16-7.67.29-22.78,0-31.71.38-.66,0-1-.06-1.17-.09,1.45.19,1.67.37,1.37.51-4.37,0-8.1.23-9.74,0a38.65,38.65,0,0,0,4.15-.17l-4.57.1c-4.12-.35,6.24-.12,6.24-.38-8.92.11-19.31.4-26.15.3-1.43-.34,16-.11,6.86-.42l10.58.13c-8.08-.54,6.43,0-1-.54-13.92-.1-15.57.17-29.45.07-3.13.19,1,.28-2.09.47-19.73.34-15.53-.85-30-.4a114.36,114.36,0,0,1-15.54.43l3.52-.38c-13.47,0-7.69.55-21.8.29,2.51-.15,10.59-.13,8.55-.17-9.14-.3-6.47.22-13.49.22l-1.46-.34-46,.36c.88-.1,3.6-.21-.12-.31l-15.44.06H26l-1.87-.1A17.66,17.66,0,0,1,17,782.46a17.84,17.84,0,0,1-8.4-11.61c-.14-.59-.18-1.19-.28-1.78s-.06-1.19-.1-1.79c0-1.23,0-2.53,0-3.78l.08-7.4-.29-7.38c0-1.72.13-3.19.19-1.33.11-7.53-.19-.39-.3-4,0-4.29.17-5.66.26-2.94C8,727.15,7.67,702.58,8,688.57l.09,2.73c.12-10.91-.6-12.31-.33-22.42l.05,1.94c.13-23.67-.14-49.83.3-67.88-.42-3.43.19-23.43-.4-24.95.29-13.52.4-9.64.59-28.68,0-5.08-.37-7.58-.43-13.86l.31-.15-.32-8.53.37-4.54-.08-5.9A28.7,28.7,0,0,1,7.91,521c-.07-4.6,0-10.22.07-14.7l.15-5.63a21.37,21.37,0,0,1,.14-2.34L8,476.5c.12.48.17,4.13.25,7-.31-11.63.32-2.11,0-12.77-.07,1.43-.18-.77-.25-1,.19-5.31.19-17.4.11-26.35l.21,1.72-.1-52.2c-.1,6.5-.47,5-.5-.31l.33-2.13C7.9,387,8,396,7.73,389c0-6.77.37-4.55.48-.66l-.11-8.24c.1-.48.15,1.45.27,2-.2-3.38.33-14.22,0-19.09l.1-.46-.13-41.12c-.28-.29-.22-6.06-.45-10.46.09-10.85.31-22.9.29-36-.14-9.19-.24-2.68-.41-6.82.26-.68.23-13.74.42-7,0-15.69-.05-20-.26-39.89-.1,2.15-.15,4.58-.24,3.32,0-3.6.11-8.19.23-7.68l0,1c-.38-22.28.75-51.42.21-69.16l0,1-.28-18.4c0-8.46.19,5.08.35-1.19C7.81,110.25,8.3,98.74,8,82.4c.38-6.33.36-17.55.32-29.32L8.28,35.54l0-8.06A23.55,23.55,0,0,1,9,20.83a7.38,7.38,0,0,0-.38.85,12.61,12.61,0,0,1,1.35-4.18,11.55,11.55,0,0,1,.84-1.41,18,18,0,0,1,1.13-1.58c-.49.17-2.45,3.72-1.27,1.44a17.81,17.81,0,0,1,10.14-8L22.4,7.5l1.65-.25,1.68-.09c.57,0,1.18,0,1.77,0h7.17l29,.12,58.1.35c14,0,8-.92,25.63-.5l-5,.33c28.29-.4,57.84,0,85.54-.32-1.65.08-1.7.18-4.4.17,2.92.12,8.33.12,13,.07,2.34,0,4.51-.07,6.09-.11a20.32,20.32,0,0,0,2.61-.15c4.31,0,1,.18,3.66.28,5.87.14,14.73-.31,17.84-.07a25.8,25.8,0,0,1-2.72.1c3.82-.12,17.81,0,14.15-.25,10.39.13,19.88-.12,28.17,0,5.41-.31,17.79.15,19.51-.29-.74.45,18.22.36,24.79.15-2.2.14,5.71.14,3.14.33,7.5,0,14.37-.09,13.06-.32,13.82.54,27.77-.44,35.55.26,22.28-.24,42.89-.41,62.93-.51-.72.45-22.15,0-21.29.52L468.49,7l11.45-.12,6.18,0c.54,0,1.08,0,1.59,0a13.57,13.57,0,0,1,1.58.12c.53.09,1.07.15,1.6.27l1.61.43c2.17.83,1.53.64.17.2a10.64,10.64,0,0,0-1.15-.28,9.71,9.71,0,0,0-1.24-.24,13.65,13.65,0,0,0-1.94-.17A17.69,17.69,0,0,1,500,12.66a17.48,17.48,0,0,1,4.91,11.52c.08,1,0,2.2,0,3.28s0,2.21,0,3.31v6.55l.11,12.84A10.54,10.54,0,0,1,505,49L505,46.57c0,3.33-.07,7.75.14,7.37L505,50.69c.3-5.32.62,13.23.78,13.82-.59-5.65-.15,16.69-.89,7.71,0,2.19.14,4.94.27,4.44,0,3.25-.12,4.29-.28,1,.11,11.93.33,7.69.32,18.5-.1,0-.14-2.22-.25-3.34.19,5.47.39,11,.3,20.11-.06-.55-.14.51-.14-2.21,0,15.69.52,26.74.33,43.95-.43-5.08-.14,5.85-.52,6.77l.11,9.25.18-3.71c0,8.11.27,15.27.14,22.24l-.15-6,.07,15.19.14-8.6c.19,8.2.47-.88.37,9.91,0-2.19,0,8.11-.22,12.33v0c.12,4,.24,8.14.15,14.13-.12,1.56-.41-1.25-.49-.24.31,4,.09,19,.42,24-.08-1.67-.27-1.76-.31-1.21l.25,3.32c-.08,3.76-.12,4.3-.28,3.69,0,11.3.47-3.59.27,9.82,0-1.05-.06-.55-.1-2.74-.11,13.47.16,26,0,38.39-.38,3.65-.09-10.81-.41-6.63.07,17.84.45,36.94.36,54.2l0-3.22c.53,2.39-.26,12.86,0,21.59,0-2.14-.29-2.8-.24-2.23-.09,11.82.13,24.17.3,42.08l-.14-2.22c-.12,7-.07,18.35-.13,25.87.14,2.23.11,6.54.31,3.92-.78,23.2.42,44.26-.23,64.85,0-2.46-.12-5.87-.12-3.91l.13,17.54c.23-1.39.14-2.3.32-6,.14,2.22.24,7.17.24,11.52-.15-7.89-.37.07-.5,3.47.07-.57.15.6.22.31-.41,9.16.46,1.54.19,14l-.12-.66c.06,4.68.22,9,.19,14-.27,2.09-.12-5-.34-5.3,0,7.09.51,14,.24,20.41l-.15-10.35c-.31,7-.23,7.8-.28,13V567l-.14,12,.09-3.06c.7,8.87.13,18.07.58,30-.43-11.62-.25-1.92-.55-2.81-.08,3.05-.18,7.69-.26,6.37.24,5.65-.19,9.43.16,17.4-.1.36,0,6-.25,4.77.08,7.35.17-1.74.29-1.12.33,11.32-.4,26.61.05,42.89.19,14,.52,16.64.68,29.67-.16,4.4-.36-3.6-.36-3.6-.14,7.1-.12,12.43,0,19.12-.08-1.35-.16,0-.27,2.08,0,5.36.35,3.59.21,10.66-.11-1.21-.28-2.77-.39-5.36l.36,19.11c-.17,1.74-.26-4-.37-6.26.08,7.36.15,19.06.42,21.33l.1-4.72c0,2.68-.23,1.38-.28-.6-.21-6.3.09-9.09.19-9.45l.06,4.66c.57-4.79-.09-18.72-.06-28.11l.42,3.91-.35-9.63c.11-2,.34-3.45.4,1.19.21-6.73-.15-6,.08-11.74,0-.64.06-.35.07.24l-.12-6.57c.09,1.29.29-1.09.23,2.94.24-11.8-.31-19,0-23.47l0,1c-.14-16.37-.31-1.58-.66-13.86l.75-8.26-.31-1.61c0-1.69,0-5,.16-4.41-.21-6.29-.13,1.07-.33-2.58.28-8.13-.13-22.41.36-24.25-.23-2.92-.18,7.77-.34-.9.52-2.48-.09-10,.15-17.46.27,2.28.13,9.32.37,1.88-.46-4.48.1-14.46,0-20.72-.18-.15-.22-3.55-.23-8.23s0-10.64,0-15.9c.12.66.2-19.78.33-29.56l.06.29c-.37-1.89-.3-12-.37-19.32.22.29.31,1.61.4,5.59v-6.9c-.12-1.63-.18-3.78-.22-8.26l.27,1.74c0-9.19-.32-18.5-.14-30.33-.26-.66-.71,9.4-.88-3.1.14-.46.38-.93.43,2.35,0-1.07-.11-3.82-.06-6l.23,5c.1-5.38-.19-2.82-.17-7.12.2.09.14-3.19.3-2.57,0,1.1-.08,3.76,0,5.4,0-4.85.15-10.72.3-12.66-.11.42-.27,0-.29-3.55,0-9.19.24-3.15.34-8.5-.14-2.23,0-8.09-.29-8.24a33.38,33.38,0,0,1,.22-4.22c-.13-4.76,0-22.21-.35-16.85l0,1.22v-.78c-.29-15.59.17-32.38,0-47.84l.1,0c-.11-9.23-.07-20.55-.28-27.14,0-2.73.18-6.44.3-5.28-.07-7.06-.19-7.85,0-18,.17,7.1.15-2.45.13,7.27.09-9.17.24-11.25,0-21.09.25,3.35.32-6.9.24-11.26l-.18,6.43c0-4.9,0-9.19,0-13.54l.33,2.35c.4-18.76-.69-33.84,0-48.13-.23-5-.16,10.19-.44,5.75,0-8.63.52-17.62.52-20.33.18-11.82-.49-11-.36-23.4-.12,1.58-.44,3.08-.55-6.17,0-8.64.5-10.62.59-5.16a21.09,21.09,0,0,1-.07,3c0,2.79.09,6.45.22,3l-.12-1.12c.12-4.29.11-16.17.3-13.38-.11-6.53-.19-2.79-.26,2,.17-11.08,0-17.31.12-28.71-.07,1.81-.2,3.48-.2,1.68.15-16.73-.23-7.36-.28-18.7.18-6.44.43,2.31.28-9.1.12-7,.31-1.48.41,1.29-.23-10.39.15-19.42.19-25.36l.1,5.47c-.06-3.27-.06-6-.05-8.69l-.24,3.13,0-4.17a8.26,8.26,0,0,1,.09-1.71c-.16-3.31-.39,2.54-.61-4,.12-4.29-.13-13.05.19-14.53-.11,13.48.32-1.49.37,9.92,0-2.2,0-4.88,0-8.11,0-.48.07.46.08,1.34.28-12.9-.36-5.93-.35-19.3.18,1.7.34-3.1.3-5.28,0,5.39-.3,2.58-.43-2.37.14-8.57-.1-9.32-.09-13.8l-.07,5.12c-.18-1.74-.15-6-.21-12,.14-.51.1,5.43.16,3.29-.16-3.32-.08-7.06,0-11.14,0-2.06.17-4.1,0-6.42a18.39,18.39,0,0,0-2-6.73c-.43-1-.78-1.51-.89-1.81s-.12-.34-.09-.38.17-.12-1-1.74a22,22,0,0,0-5-4.38l-1.11-.69-1.09-.55a18.6,18.6,0,0,0-2.13-.91c-.71-.29-1.47-.44-2.25-.67a22.83,22.83,0,0,0-2.59-.39l-1.49-.08h-1.55l-3.65,0c3.14.24,3.69.18-4,.41l9-.08a20.17,20.17,0,0,1,9.1,2,18.9,18.9,0,0,0-5.77-1.68,20.5,20.5,0,0,0-3-.18l-2.88.08c1.36,0,2.72,0,4.16.05a20.4,20.4,0,0,1,4.11.69,18.5,18.5,0,0,1,6.05,3,18,18,0,0,0-3.83-2,14,14,0,0,0,1.64,1,17.51,17.51,0,0,0-5.27-2.12,23.68,23.68,0,0,0-5.72-.39c-3.81.07-7.77.15-12,0l.26-.59c-12.86-.26-22.84.3-39.54.15l5.36.1c-2.24.23-10.31,0-15.71.13.5-.2-2.88-.27-5.18-.39.28.15-12.22,0-13.74.38L397.46,5c-13.48-.11-15.38.56-28.34.5,3.9-.21-2-.35,6.69-.51h-5.74a14.65,14.65,0,0,0-2.55.1c-2.53-.12-12,.27-16,.08-1.82.09-2.42.29-7.28.28-.53,0,0-.1,0-.1s-7.6.13-3.36.35c-13.33-.62-37.25,0-48.85-.48L262.7,5.4a5.38,5.38,0,0,1,1.65-.08c-11.82-.18-7.27.57-20.72.36-6.87-.32,7.15-.17,2.86-.29-1.87-.65-16.24.09-25.29-.29l2.19,0c-6.92-.22-16.89.25-28.19.2,0,0,.55-.06.07-.1-7.73.33-22.37.44-33.25.53,3.38-.25,4.94-.13,2.88-.39-4.88,0,1.43.41-8.3.49-3.16-.14-10.19-.26-11.12-.54h9.18c-4.7-.36-11.88,0-16.72,0l.62-.16c-14.07.05-14.27.44-29.39.42l1.56.12c-8.26.39-6.93-.22-15.17.07l-2.49-.39c-5.45.1-19.1.38-28.88.46,5.54-.29,17-.44,24.06-.62-5.41,0-18.37,0-21.19.22,2.18,0,4.92-.13,7.07-.07-6.63.31-15.36.46-26.13.46,1-.38-6.06-.43-14.3-.46l-6.3,0H25.83l-1.61.07c-.53,0-1.05.14-1.57.2a10.23,10.23,0,0,0-1.51.3A22,22,0,0,0,12.58,10,20.41,20.41,0,0,0,6,23.21L6,25.09v5.42l0,7.32C5.84,47.67,5.76,57.9,5.78,69c.6-7.87,0,6.48.63,5.12,0,5.17,0,7.14,0,7.6L6,97.39c-.18,3.71-.13-4.92-.27-4.44,0,11.32-.26,4.75-.42,12.24.22-1.54.31,3.94.23,10.39l.28-9.09c.33,15.82-.51,13.67-.19,29.62l-.19-5c.11,8.18,0,30.19.49,38.21-.07,1.45-.24,3.36-.28-.24-.07,19.56.52,43.53.22,58.73l-.15-1.48c0,3.65.28,6.35.13,10.92-.06-.24-.15-1.47-.16.22.05,1.93.26,9.69.17,14.53l-.17-4.13c-.2,19.08.41,29.28.51,45.27-.22,0-.37,3.72-.47,8.41s-.15,10.31-.19,14.05l-.06-.26c-.05,22.21.36,37.73.54,58.3-.48,12.77-.2,43.25-.47,63.77.08-3.14.34.51.39,4.16-.09,4.82.31,13.31-.1,12.55v-1.72c-.4,3.63-.29,13.53-.3,21.25l.53,1.27c-.77,20.21.28,53-.41,64L6,554.63l-.28-.26c-.07,13.52-.11,20.26,0,37l-.2-3.41c0,9.42.82,11.9.83,20.59l-.42,2.62c0,16.44-.36,33.08,0,49.32a15.26,15.26,0,0,1-.2-3.41c0,7.74-.29,29.93.29,27.12-.19.1-.2,4.34-.14,9.66L6.09,710l-.28-1.38c.36,7.49.45,7.73.55,18.2,0,2.48-.22,2.17-.15-1.12-.15,8.26.26,6.44.12,16.46l-.18-3.73c0,8.5.07,7.83.28,12.51.06,2.67,0,6.7,0,10.23s-.19,6.51-.23,7.21c0,.3.12.82.28,1.51L6.7,771l.4,1.34a22.47,22.47,0,0,0,3.16,6.27c.34.62-.86-.84-1.33-1.68a18.83,18.83,0,0,0,6.8,6.95,19.06,19.06,0,0,0,7.48,2.57,62.31,62.31,0,0,0,6.92.14c2.25,0,4.51,0,7,.08a6.82,6.82,0,0,0,1.65.17H25.82l-1.47-.08a16.16,16.16,0,0,1-5.29-1.2,3.83,3.83,0,0,0,1.25.6,19.28,19.28,0,0,0,2.38.67c.71.15,1.19.27,1,.3a5,5,0,0,1-.82,0,11.91,11.91,0,0,1-2.13-.32,22,22,0,0,0,3.15.51l1.75,0c.6,0,1.14,0,1.74,0l7.45-.19c5.16-.11,10.51-.19,15-.13.43,0,.85,0,1.18.09l-.92,0c2.05,0,3.89,0,5.62,0,2.84,0,4.64.07,7.36.08,1.05.21,10.46.11,15,.13-.38-.28,5.58-.24,0-.47.72,0-.86,0-3.88,0l-1.94,0,.31,0-11.31,0c3.59-.14,7.35-.26,12.38-.11L80,786.3c6.22.39,18.22.6,19.89.85,13.89-.16,32.72-.1,41.45-.63a44.33,44.33,0,0,1,6,.23c-2.28.05-5,0-6.22.12,7.89-.14,23.39-.05,25.28-.42,10,.17-5.59.34,8.08.28l-1.85.11c26.9.59,43.74-.94,73.56-.18-2.07,0-3.1-.07-3.52-.13,34,.33,70.07-.31,103.62.22,9.54.11,10.57-.13,16.39-.31l2.07.3,10-.35c14.11-.26,24.44.74,42.3.26l-2.3-.2c6.42,0,20.33-.12,19.25.11a34.82,34.82,0,0,1,4.61-.11l.2.16,15.76-.27c12.22.11-1.91.63,15.92.66,6.63-.06,18.87-.46,16.39-.57a64,64,0,0,1-7-.26l6.06-.08c1.1-.47,5.76-.94-9.12-1.27l-10.37.28-3.34-.23h8.73c-5-.21-8.09,0-11.6.1a41.57,41.57,0,0,0-4.35-.25l-10.18.44c-1.23-.18,4.57-.36-2.27-.46-4.77.21,4.57.41-3.32.54a70.46,70.46,0,0,0-9.33-.2c-.82-.12.41-.2,2.72-.25-5.18.14-13.72.06-16.39.31-5.17-.26-17.5.07-17-.37-1.63.11-9.13.35-13.89.36,8.7-.53-17.82,0-15.52-.6-6.44.47-23.25.21-34.65.47.64,0,1.89-.11,2.9-.09-6.42,0-8.28-.18-12.41-.27-.82.39-10.82.48-16.2.72-7.86-.38,4.78-.46,2.31-.82.4.32-13.67.32-11,.58-6-.23-5.18-.11-8.28-.44-1.05.49-5.6.08-10.59.38-8.71-.24-2.24-.46-11.8-.31C266.34,784.58,274.85,784.4,274.85,784.4Zm-227.43.85h0l4.69,0Zm-19.11,0h8.29c.67.1-.05.2-2,.19C35.66,785.39,31.15,785.34,28.3,785.26Zm40.43,1.95a38.11,38.11,0,0,1-4.45-.07l5.29,0,.36,0A9.3,9.3,0,0,1,68.73,787.2Z"/><path class="cls-3" d="M74.17,786.83l1.25,0-1.8-.06-1.07.09Z"/><path class="cls-3" d="M506.46,416.75v-.4c0,.34,0,.64,0,.85Z"/><polygon class="cls-3" points="8.24 535.27 8.17 535.29 8.23 536.96 8.24 535.27"/><path class="cls-3" d="M505.5,522c0,.2-.05.6-.07,1.38C505.45,523.34,505.47,522.74,505.5,522Z"/><path class="cls-3" d="M505.44,567.49l-.1,6.43Z"/><path class="cls-3" d="M505.3,602.45a3.4,3.4,0,0,0,.12.68v-.07Z"/><path class="cls-3" d="M505,46.57V45.22C504.9,42.06,504.92,44.21,505,46.57Z"/><path class="cls-3" d="M505.62,212l-.13-5.32A31.35,31.35,0,0,0,505.62,212Z"/><path class="cls-3" d="M353.73,7.42h0Z"/><path class="cls-3" d="M505.49,199c-.06,2.94,0,5.41,0,7.69C505.51,204.26,505.54,201.42,505.49,199Z"/><path class="cls-3" d="M505.17,754v1.68s0,.07,0,.2Z"/><path class="cls-3" d="M505.2,755.86l0,1.87C505.24,756.87,505.23,756.13,505.2,755.86Z"/><path class="cls-3" d="M505.31,761.67l-.07-3.94C505.23,759.09,505.23,760.77,505.31,761.67Z"/><path class="cls-3" d="M505.3,707.69l-.1-.53A1.26,1.26,0,0,0,505.3,707.69Z"/><path class="cls-3" d="M505.27,693.63c0,3.35-.22,8.42-.15,13.1l.08.44C505,705,505.44,696.82,505.27,693.63Z"/><path class="cls-3" d="M506.53,634.92l-.08,11.78c.11-2.06.25-4.77.28.59C507.05,632.44,506.49,650.37,506.53,634.92Z"/><path class="cls-3" d="M506.69,598.38c.05,6.33.16-.07.22.26C506.81,594.63,506.78,593.65,506.69,598.38Z"/><path class="cls-3" d="M506.69,334.3l.26.64C506.91,330.05,506.84,334.89,506.69,334.3Z"/><polygon class="cls-3" points="505.37 283.81 505.21 288.56 505.44 290.82 505.37 283.81"/><polygon class="cls-3" points="507.19 253.99 507.22 256.12 507.13 247.98 507.19 253.99"/><path class="cls-3" d="M302.35,4.95l1.48.32C307.12,5.21,307.81,4.85,302.35,4.95Z"/><path class="cls-3" d="M110.87,5.27c-2.08-.16-7.47-.26-10.79-.1C104.39,5.19,108.68,5.31,110.87,5.27Z"/><polygon class="cls-3" points="5.71 484.48 5.61 480.63 5.69 487.89 5.71 484.48"/><path class="cls-4" d="M60.14,98.23c-22.28,0-40.41-18.43-40.41-41.09S37.85,16,60.14,16s40.41,18.43,40.41,41.09S82.42,98.23,60.14,98.23Z"/><path d="M60.14,16.55c22,0,39.91,18.21,39.91,40.59S82.14,97.73,60.14,97.73,20.23,79.52,20.23,57.14s17.9-40.59,39.91-40.59m0-1c-22.59,0-40.91,18.62-40.91,41.59S37.54,98.73,60.14,98.73,101,80.11,101,57.14,82.73,15.55,60.14,15.55Z"/><path class="cls-5" d="M60.14,91.3C41.61,91.3,26.55,76,26.55,57.14S41.61,23,60.14,23,93.73,38.3,93.73,57.14,78.66,91.3,60.14,91.3Z"/><path d="M60.14,23.48c18.25,0,33.09,15.1,33.09,33.66S78.38,90.8,60.14,90.8,27,75.7,27,57.14,41.89,23.48,60.14,23.48m0-1C41.31,22.48,26,38,26,57.14S41.31,91.8,60.14,91.8,94.23,76.28,94.23,57.14,79,22.48,60.14,22.48Z"/><path class="cls-6" d="M73.68,475.09H339.27a124.5,124.5,0,0,1,124.5,124.5V728.82a19,19,0,0,1-19,19H179.18a124.5,124.5,0,0,1-124.5-124.5V494.09A19,19,0,0,1,73.68,475.09Z"/><path id="_Path_" data-name="&lt;Path&gt;" class="cls-7" d="M484.23,53.73V419.18a25.91,25.91,0,0,1-25.91,25.91H60.14a25.91,25.91,0,0,1-25.91-25.91V105.68a53.27,53.27,0,0,0,25.91,6.68c30,0,54.33-24.72,54.33-55.23a55.6,55.6,0,0,0-8.29-29.32H458.32A25.91,25.91,0,0,1,484.23,53.73Z"/><circle class="cls-1" cx="259.23" cy="236.68" r="154.09"/><circle id="_Ellipse_2" data-name="&lt;Ellipse&gt;" class="cls-8" cx="259.23" cy="236.68" r="141.82"/><g class="cls-9"><path class="cls-10" d="M108.87,231.06q5.56,4.89,10.57,10.2s.16-.12.48-.34l1.43-1c1.27-.87,3.23-2.07,5.9-3.54s6.15-3.13,10.33-5.13a131.23,131.23,0,0,0,14.38-7.7,56.34,56.34,0,0,0,8-6.06,49.08,49.08,0,0,0,7.16-8.16c4.23-5.93,7.37-12.41,11-18.31a52.69,52.69,0,0,1,6-8.22,42.12,42.12,0,0,1,7.89-6.62,55.34,55.34,0,0,1,9.73-4.91,71.9,71.9,0,0,1,10.92-3.21,62.29,62.29,0,0,1,11.37-1.45,29.83,29.83,0,0,1,10.74,1.54,18.23,18.23,0,0,1,4.56,2.35,17.84,17.84,0,0,1,3.69,3.55,13.58,13.58,0,0,1,3.09,9.11,9.83,9.83,0,0,1-1.35,4.42,12,12,0,0,1-3.22,3.55,12.45,12.45,0,0,1-4.35,2,10.46,10.46,0,0,1-4.65,0,12.45,12.45,0,0,1-7.57-5.53,11.56,11.56,0,0,1-1.62-4.38,12.86,12.86,0,0,1,.26-4.67,15,15,0,0,1,1.91-4.36,19.26,19.26,0,0,1,3-3.74,24.32,24.32,0,0,1,3.73-3,26.59,26.59,0,0,1,4.11-2.29,58.08,58.08,0,0,1,17.22-4.09c5.5-.59,10.55-.84,15-1.33a76.23,76.23,0,0,0,11.16-1.88l2.29-.59,2.28-.73,1.14-.36,1.13-.43,2.27-.86a82.38,82.38,0,0,0,8.84-4.3,111.77,111.77,0,0,0,16.39-11.38c10.27-8.48,19.15-18.14,27.26-26.33,4-4.11,7.89-7.87,11.46-11.11s6.85-6,9.66-8.12,5.14-3.73,6.77-4.78l2.52-1.59a133.65,133.65,0,0,0-20,15.38c-6.23,5.69-12.14,11.72-18.1,17.66a235.81,235.81,0,0,1-18.53,17,102.52,102.52,0,0,1-20.93,13.43A65,65,0,0,1,270.54,157c-8.24.64-16.74.29-25.42,1.67a44.47,44.47,0,0,0-12.85,3.85,28.89,28.89,0,0,0-10.68,9,19.85,19.85,0,0,0-3.1,6.75,17,17,0,0,0-.08,7.72,18.2,18.2,0,0,0,9.33,11.87,16.9,16.9,0,0,0,7.73,1.88,17.77,17.77,0,0,0,7.69-1.86,18.71,18.71,0,0,0,6.17-4.86,18.11,18.11,0,0,0,2.22-3.37,16.67,16.67,0,0,0,1.36-3.88,18.47,18.47,0,0,0,0-8,22.3,22.3,0,0,0-3-7.13,25.26,25.26,0,0,0-5-5.7c-.5-.39-1-.8-1.5-1.18s-1-.73-1.59-1.07a28.75,28.75,0,0,0-3.35-1.74,37.45,37.45,0,0,0-14-2.91A70.18,70.18,0,0,0,211,159a79.23,79.23,0,0,0-13.06,3.3,61.22,61.22,0,0,0-12.45,5.9,50,50,0,0,0-10.84,9,81.7,81.7,0,0,0-8.06,10.93c-4.62,7.32-8.58,14.33-13.88,19s-12.33,8.13-20,11.4S116.67,225.24,108.87,231.06Z"/><path class="cls-10" d="M98.34,338.75a82.83,82.83,0,0,0,2.11,14.82l1.23,0c.81,0,2,0,3.58,0a49.49,49.49,0,0,0,22.18-6.4,47.57,47.57,0,0,0,9.24-6.82c5.95-5.54,10.61-12.72,15.67-19.37,1.27-1.66,2.58-3.28,4-4.83l2.15-2.26,2.33-2.18a57.7,57.7,0,0,1,11-7.61,60.44,60.44,0,0,1,13.34-5.19,57.62,57.62,0,0,1,14.95-1.75,38.89,38.89,0,0,1,7.5.78,29.56,29.56,0,0,1,7,2.32,19.62,19.62,0,0,1,5.67,4,12.89,12.89,0,0,1,3.17,5.57c1.13,4.05-.29,9.28-3.37,12.69a10.72,10.72,0,0,1-12.16,3.09,15.22,15.22,0,0,1-5.94-4.06,12.15,12.15,0,0,1-2.9-6.24,11.75,11.75,0,0,1,.21-3.47,13.13,13.13,0,0,1,1.22-3.44,19.88,19.88,0,0,1,5.11-6,31.15,31.15,0,0,1,7.28-4.25c.66-.27,1.33-.51,2-.76s1.33-.45,2.06-.62l2.15-.55,2.18-.45a77.78,77.78,0,0,1,18-.93c12.17.6,24.34,2.93,36.56,3.44A78.34,78.34,0,0,0,294,297.27a55.41,55.41,0,0,0,8.65-2.41,50.59,50.59,0,0,0,7.93-3.84,72.15,72.15,0,0,0,13.13-10.37c1.94-1.88,3.77-3.79,5.54-5.7s3.49-3.82,5.1-5.81c3.21-4,6-8.35,7.14-13.16A19.27,19.27,0,0,0,340,242.15a12.08,12.08,0,0,0-10.68-6.5A11.62,11.62,0,0,0,323.5,237a8.65,8.65,0,0,0-3.86,4,9.63,9.63,0,0,0-.8,5.07,12.06,12.06,0,0,0,1.39,4.47,13.8,13.8,0,0,0,5.7,5.56c4.33,2.33,9.4,3,14.37,2.81A41.06,41.06,0,0,0,355,255.53c4.64-2,9.15-4.74,12.36-8.71s4.71-9,5.94-14c.62-2.49,1.19-5,1.9-7.45a45.49,45.49,0,0,1,2.72-7.18,50.55,50.55,0,0,1,8.56-12.36,82.13,82.13,0,0,1,10.82-9.64c3.76-2.85,7.58-5.42,11.3-7.84,7.45-4.82,14.5-9.16,20.49-13.52,3-2.19,5.71-4.37,8.15-6.52a68,68,0,0,0,6.26-6.42,44.68,44.68,0,0,0,6.91-10.72,31.66,31.66,0,0,0,1.31-3.17l.42-1.11a47,47,0,0,1-4.13,8.83,55.09,55.09,0,0,1-5.88,7.75,90,90,0,0,1-14.79,12.54c-10.6,7.44-22.08,13.58-32.38,21.63a80.71,80.71,0,0,0-7.37,6.47c-1.19,1.13-2.26,2.38-3.37,3.59s-2.11,2.53-3,3.9c-3.94,5.31-6.37,11.74-7.88,18a92,92,0,0,1-2.71,9.2,30.41,30.41,0,0,1-2,4.22,22.07,22.07,0,0,1-2.67,3.69,27.48,27.48,0,0,1-7.35,5.52,41.54,41.54,0,0,1-8.68,3.47,35.36,35.36,0,0,1-18.3.32,16.11,16.11,0,0,1-7.49-4.19,9.83,9.83,0,0,1-2.71-7.3,6.32,6.32,0,0,1,1.26-3.37,6.48,6.48,0,0,1,2.94-2.06,9.67,9.67,0,0,1,7.58.57,10.07,10.07,0,0,1,4.65,6.07,16.55,16.55,0,0,1,.21,8.34,24,24,0,0,1-3.59,7.94,56,56,0,0,1-5.87,7.16,119.94,119.94,0,0,1-13.87,12.91,55.77,55.77,0,0,1-7.73,5,44.44,44.44,0,0,1-8.39,3.38,60.58,60.58,0,0,1-18.23,2c-12.52-.39-25.17-3.25-38.41-4.5a90.37,90.37,0,0,0-20.32.08,53.91,53.91,0,0,0-10.31,2.31,38.21,38.21,0,0,0-9.75,4.94,28.14,28.14,0,0,0-8,8.25,22.07,22.07,0,0,0-2.48,5.59,20.6,20.6,0,0,0-.6,3.07c-.05.52-.12,1-.15,1.56l0,1.63,0,.82.12.8.26,1.6c.13.52.29,1,.44,1.54a9.91,9.91,0,0,0,.53,1.5l.63,1.45c.23.47.5.91.76,1.37a21.38,21.38,0,0,0,1.75,2.56,24,24,0,0,0,9.76,7.2,20.8,20.8,0,0,0,12.6.86,21.35,21.35,0,0,0,10.63-6.74,24.66,24.66,0,0,0,5.46-10.89l.31-1.52.17-1.55a24.14,24.14,0,0,0,.08-3.15,21.68,21.68,0,0,0-1.27-6.31,23.87,23.87,0,0,0-2.92-5.59,26.66,26.66,0,0,0-4.15-4.53,32.89,32.89,0,0,0-10-5.87,45.38,45.38,0,0,0-10.74-2.64,48.12,48.12,0,0,0-5.4-.39c-1.78-.1-3.55,0-5.32,0a71,71,0,0,0-39.33,14.57,70,70,0,0,0-8,7.19c-2.44,2.6-4.61,5.28-6.65,7.9-4.08,5.23-7.74,10.24-11.86,14.06a35,35,0,0,1-6.53,4.85,35.51,35.51,0,0,1-7.45,3.2A35.11,35.11,0,0,1,98.34,338.75Z"/><path class="cls-10" d="M344.31,384a36.44,36.44,0,0,1,7-12.8s-.05-.06-.17-.18l-.23-.21a3.51,3.51,0,0,0-.29-.37c-.13-.13-.21-.35-.36-.55s-.24-.5-.4-.79a11.64,11.64,0,0,1-.65-2.5,14.08,14.08,0,0,1,.05-3.66,12.66,12.66,0,0,1,.46-2.08,11,11,0,0,1,.37-1c.12-.35.36-.78.53-1.19a31,31,0,0,1,3.43-5.28c1.49-1.88,3.31-3.88,5.38-6.09s4.4-4.66,6.68-7.54a68.46,68.46,0,0,0,6.36-9.49,54.81,54.81,0,0,0,4.83-11.56,43.8,43.8,0,0,0,1.67-13.58,35.67,35.67,0,0,0-.35-3.62l-.3-1.86-.45-1.82a36.31,36.31,0,0,0-1.14-3.59c-.23-.58-.49-1.16-.74-1.74a17.05,17.05,0,0,0-.82-1.71l-.91-1.68c-.32-.55-.68-1.08-1-1.62a36.79,36.79,0,0,0-2.29-3.11c-.42-.5-.87-1-1.31-1.45a16,16,0,0,0-1.38-1.4l-1.46-1.34-1.59-1.23A27.7,27.7,0,0,0,358,275l-1-.36c-.34-.1-.69-.18-1-.27-.69-.17-1.37-.37-2.08-.49l-2.14-.29a17.56,17.56,0,0,0-2.17-.09A17.08,17.08,0,0,0,345,274a17.37,17.37,0,0,0-4.48,1.71,13.29,13.29,0,0,0-4.08,3.45,10.41,10.41,0,0,0-2.18,5.67L334.1,287l1.43,1.1c.74.57,1.48,1.16,2.27,1.67a19.52,19.52,0,0,0,2.6,1.23,14.34,14.34,0,0,0,2.77.71l1.41.18c.47,0,.93,0,1.4,0a20.25,20.25,0,0,0,10.17-3.12,23.64,23.64,0,0,0,7.49-7.41c.24-.39.49-.76.7-1.16l.6-1.24a17.41,17.41,0,0,0,1-2.59c.3-.89.41-1.71.61-2.58s.26-1.72.33-2.59a35.09,35.09,0,0,0-.76-10.15,58.87,58.87,0,0,0-3-9.35c-1.2-3-2.54-5.85-3.88-8.63s-2.63-5.5-3.77-8.22c-2.29-5.43-3.91-10.94-3.9-16.26a25,25,0,0,1,1.17-7.62,36.43,36.43,0,0,1,3-6.75c2.35-4.2,5-7.86,7-11.29a52.2,52.2,0,0,0,4.44-9.2,78.34,78.34,0,0,0,4-17.66c.74-6.14,1-12.42,1.28-18.63.51-12.44.48-24.66.1-35.4s-1.09-20-1.69-26.61c-.31-3.29-.57-5.91-.78-7.71l-.3-2.77a399.85,399.85,0,0,1,2.49,59.55c-.15,5-.43,9.92-.77,14.87s-.76,9.89-1.44,14.76c-1.33,9.73-4,19.24-9.43,27.17-2.68,4-5.82,8-8.46,12.46a37.08,37.08,0,0,0-3.34,7.26,28.46,28.46,0,0,0-1.36,8.07,45.64,45.64,0,0,0,2.73,15.61c1.62,4.9,3.74,9.56,5.57,14a65.74,65.74,0,0,1,4.13,13.52,28.57,28.57,0,0,1,.38,6.61c0,.54-.11,1.06-.16,1.59s-.19,1-.27,1.56a15.8,15.8,0,0,1-.88,2.88,15.55,15.55,0,0,1-8.26,7.92,10.88,10.88,0,0,1-5.24.86,6.53,6.53,0,0,1-4-1.89l1.4,3.61a1.85,1.85,0,0,1,.63-1,5.65,5.65,0,0,1,2-1.16,8.81,8.81,0,0,1,2.78-.53,16.81,16.81,0,0,1,3.23.3,19.49,19.49,0,0,1,11.3,7.35,24.52,24.52,0,0,1,5.15,13,32.64,32.64,0,0,1-2.5,14.39,51,51,0,0,1-8.07,13.13,77,77,0,0,1-5.5,5.87c-2,2-4.16,4-6.31,6.34a49.35,49.35,0,0,0-6.12,7.89,31.77,31.77,0,0,0-2.48,5,29.16,29.16,0,0,0-1.49,5.57,25.91,25.91,0,0,0,.77,11.77,20,20,0,0,0,2.92,5.88A18,18,0,0,0,344.31,384Z"/><path class="cls-10" d="M134.23,83.37a96,96,0,0,1,3.63,14.31,3.11,3.11,0,0,1,.65,0l1.92.06a35.46,35.46,0,0,1,7.32,1.19A39.24,39.24,0,0,1,158.51,104c.48.34,1,.64,1.47,1l1.43,1.17a30.94,30.94,0,0,1,2.85,2.6c.24.23.49.46.72.7l.65.77,1.35,1.56c.44.54.81,1.13,1.23,1.7a16.86,16.86,0,0,1,1.2,1.78l1.1,1.9.28.48.23.51.46,1,.47,1a5.9,5.9,0,0,1,.41,1.06l.73,2.18c.26.73.34,1.51.54,2.27a18.7,18.7,0,0,1,.44,2.37,45.49,45.49,0,0,1,.38,5.16c.06,3.61-.2,7.49-.53,11.67s-.69,8.63-.62,13.39A53.1,53.1,0,0,0,175.56,173,54.44,54.44,0,0,0,182,186.82,53.89,53.89,0,0,0,205.46,207c1.25.49,2.44,1,3.74,1.46a34.71,34.71,0,0,0,4,1.1,28,28,0,0,0,8.57.56,21.05,21.05,0,0,0,4.5-1,17.35,17.35,0,0,0,4.26-2.23,14.87,14.87,0,0,0,3.46-3.6,11.4,11.4,0,0,0,1.21-2.23l.46-1.17a11.19,11.19,0,0,0,.31-1.19,17,17,0,0,0-.54-9.23,19.42,19.42,0,0,0-4.66-7.57,15.94,15.94,0,0,0-8-4.42,17.66,17.66,0,0,0-8.78.47,23.27,23.27,0,0,0-15.35,17.83,25.31,25.31,0,0,0-.08,7.79,32.17,32.17,0,0,0,5.51,13.64,41.83,41.83,0,0,0,9.74,9.92c7.3,5.33,15.21,8.46,22.46,11.27s14.05,5.33,19.82,8.48a52.47,52.47,0,0,1,14,10.76,58.83,58.83,0,0,1,7.8,10.83,73,73,0,0,1,7.78,21.77,102.75,102.75,0,0,1,1.47,23.92c-.72,16-4.14,31.39-6.4,45A180.79,180.79,0,0,0,278.44,378a91.81,91.81,0,0,0,.27,15.06,69,69,0,0,0,1.76,9.77l1,3.44c-3.19-9.64-3.66-19.91-2.87-29.9s2.76-19.91,4.65-29.8a278.56,278.56,0,0,0,4.51-30,106.63,106.63,0,0,0-1.46-30.49,78.34,78.34,0,0,0-4.65-14.72A61.42,61.42,0,0,0,273.81,258,54,54,0,0,0,262.54,247,83,83,0,0,0,249,239.38c-9.29-4.3-18.8-7.61-27-12.72a44.23,44.23,0,0,1-10.74-9,29.8,29.8,0,0,1-6.19-11.92,21.12,21.12,0,0,1-.56-6.42l.18-1.58.31-1.48.47-1.45.61-1.41a16.62,16.62,0,0,1,8.67-8.2,11.1,11.1,0,0,1,5.45-.68l.66.09.58.18c.19.06.39.09.58.17l.55.27a5.13,5.13,0,0,1,1.08.63,6.35,6.35,0,0,1,1,.81c2.63,2.34,4.16,6.55,3.49,9.63a5.8,5.8,0,0,1-2.22,3.53,8.81,8.81,0,0,1-4.64,1.63,18.39,18.39,0,0,1-5.94-.55,24.7,24.7,0,0,1-3.05-.95c-1-.37-2-.89-3.07-1.32A44.6,44.6,0,0,1,190,180.2a42.44,42.44,0,0,1-4.67-12.51,43.87,43.87,0,0,1-.77-6.58,60.92,60.92,0,0,1,.17-6.91c.35-4.74,1.08-9.69,1.52-15a58.42,58.42,0,0,0-.6-16.75A46,46,0,0,0,179,106.34a52,52,0,0,0-27.09-20.82A45.73,45.73,0,0,0,134.23,83.37Z"/><path class="cls-10" d="M408.19,258.65c4.89.33,9.79.65,14.69.89l.57-2.83a79.4,79.4,0,0,0,1.2-8.49,47.41,47.41,0,0,0,.13-6.52,36.74,36.74,0,0,0-1.26-8,31.55,31.55,0,0,0-3.89-8.69,42.87,42.87,0,0,0-6.33-7.62,87,87,0,0,0-7.56-6.44q-3.92-3-8.29-6.07a189.17,189.17,0,0,0-19.1-11.59c-6.82-3.64-13.89-7-20.65-11a98,98,0,0,1-9.78-6.44c-1.56-1.17-3.05-2.42-4.51-3.72-.71-.65-1.37-1.32-2.07-2l-2-2.12c-5-5.82-8.78-13-9.82-20.56a25.15,25.15,0,0,1,.81-11.07c1.05-3.61,2.91-6.75,5.49-7.88a7.28,7.28,0,0,1,4.34-.46,13.47,13.47,0,0,1,4.7,1.9,20.1,20.1,0,0,1,4.15,3.46,22.3,22.3,0,0,1,3.16,4.4c1.79,3.24,2.9,6.7,2.46,9.92a14.2,14.2,0,0,1-4.69,8.57,16.29,16.29,0,0,1-8.81,4.13,21.49,21.49,0,0,1-9.56-.94,29.65,29.65,0,0,1-14.28-10.55,40.14,40.14,0,0,1-4.14-6.87,47.52,47.52,0,0,1-2.63-6.72A61.88,61.88,0,0,1,308.21,124a114.77,114.77,0,0,1-.24-20c.39-6.85,1.06-13.78,1.18-20.66a156,156,0,0,0-4.08-38.82,164.56,164.56,0,0,0-4.61-15.8c-.84-2.34-1.64-4.55-2.48-6.56s-1.62-3.87-2.35-5.55-1.48-3.15-2.08-4.45-1.18-2.39-1.65-3.28l-1.43-2.74a148.32,148.32,0,0,1,16.43,49.24,145.49,145.49,0,0,1,1.52,25.88c-.21,8.63-1.43,17.24-2.1,26a129.73,129.73,0,0,0-.45,13.23,68.67,68.67,0,0,0,1.58,13.33A52.06,52.06,0,0,0,312,146.59a38.19,38.19,0,0,0,8.51,11A30.17,30.17,0,0,0,333,164.28a23.39,23.39,0,0,0,14.66-.73,21.14,21.14,0,0,0,11-10.24,17.5,17.5,0,0,0,1.76-7.78,22.13,22.13,0,0,0-1.52-7.55,33,33,0,0,0-1.48-3.34,28.1,28.1,0,0,0-7-8.75,22.49,22.49,0,0,0-6.75-4,15.27,15.27,0,0,0-8.63-.63,23,23,0,0,0-2.19.73c-.68.34-1.38.65-2,1.06a15.24,15.24,0,0,0-3.34,2.9,22.11,22.11,0,0,0-4,6.84,33.53,33.53,0,0,0-2.2,14.71A44.26,44.26,0,0,0,325,161.62a54.6,54.6,0,0,0,7.35,12.26c.77.91,1.53,1.84,2.32,2.73s1.64,1.77,2.49,2.57c1.68,1.63,3.42,3.19,5.23,4.64a112.73,112.73,0,0,0,11.18,7.92c7.63,4.77,15.4,8.82,22.61,13.22a176.9,176.9,0,0,1,20.54,14.66,72.48,72.48,0,0,1,8.74,8.18,21.72,21.72,0,0,1,4.88,8.71,26.93,26.93,0,0,1,.4,10.33A91.56,91.56,0,0,1,408.19,258.65Z"/><path class="cls-4" d="M175.64,294q.46.62.95,1.22l.44-.2a10.58,10.58,0,0,0,1.22-.62,19.62,19.62,0,0,0,4-2.91,21.13,21.13,0,0,0,4.23-5.63,20.58,20.58,0,0,0,2.32-7.94,18.85,18.85,0,0,0-.15-4.35,24.14,24.14,0,0,0-1.08-4.18,70.37,70.37,0,0,0-3.27-7.41,54,54,0,0,1-2.65-6.18,21.29,21.29,0,0,1-1-4.42,15.48,15.48,0,0,1,.66-6.77,17.11,17.11,0,0,1,3.19-5.74,16.52,16.52,0,0,1,3.72-3.26,11.52,11.52,0,0,1,1.25-.71l.46-.24a17.15,17.15,0,0,0-9.53,13.91,20.91,20.91,0,0,0,1.41,8.69c1,2.78,2.3,5.41,3.46,8.09a32.18,32.18,0,0,1,2.58,8.24,18.59,18.59,0,0,1-.87,8.42A19.55,19.55,0,0,1,175.64,294Z"/><path class="cls-4" d="M313.25,282.17q.57.56,1.21,1.09l.7-.34a20.48,20.48,0,0,0,1.87-1.15,18.1,18.1,0,0,0,5.18-5.86,21.27,21.27,0,0,0,2.05-4.87,23.13,23.13,0,0,0,1-5.87,26.52,26.52,0,0,0-2.9-12.75,43.53,43.53,0,0,0-8-11.06,100.27,100.27,0,0,0-9.71-8.48,58.63,58.63,0,0,1-7.87-7.28,23.65,23.65,0,0,1-3.89-6.1,23.35,23.35,0,0,1-1.53-5.14,32.15,32.15,0,0,1-.44-5.53,82.26,82.26,0,0,1,.88-10.48c.42-3.17.75-5.91.89-7.87.09-1,.11-1.76.13-2.3l0-.83c-.12,4.68-.89,9.29-1.45,13.93s-1,9.36,0,14a22.45,22.45,0,0,0,2.4,6.61,28.18,28.18,0,0,0,4.22,5.64c3.23,3.43,7,6.26,10.51,9.29a59.42,59.42,0,0,1,9.51,10.11,32.7,32.7,0,0,1,5.72,12.44,23,23,0,0,1-1.31,13.38A16.9,16.9,0,0,1,313.25,282.17Z"/><path class="cls-4" d="M331.11,162.13a5.74,5.74,0,0,1-.42-2,4.21,4.21,0,0,1-.94-1,9.77,9.77,0,0,1-1.53-3.82c-.42-1.82-.58-4.14-1.09-6.87A17.74,17.74,0,0,0,323,140c-4.56-5.24-12.52-9-21.35-8.85a23.47,23.47,0,0,0-13,3.81,15.73,15.73,0,0,0-4.89,5.23,16.35,16.35,0,0,0-2.1,7A14,14,0,0,0,283,154.4a11.31,11.31,0,0,0,2.21,3,7.15,7.15,0,0,0,1.47,1.2,3.84,3.84,0,0,0,1.9.6,5.71,5.71,0,0,0,3.52-1.47,8.43,8.43,0,0,0,2.28-3,11.28,11.28,0,0,0,.65-7.26,11.47,11.47,0,0,0-3.78-6.09,17.11,17.11,0,0,0-6.15-3.38c-4.44-1.45-9-1.25-13.27-.8s-8.27,1.16-12.1,1.3a57.86,57.86,0,0,1-10.65-.46,47.93,47.93,0,0,1-8.59-2,38.31,38.31,0,0,1-6-2.68c-.83-.41-1.58-1-2.38-1.45s-1.52-1.12-2.29-1.68-1.45-1.25-2.13-1.94-1.37-1.38-2-2.16a32.19,32.19,0,0,1-5.59-10.33c-2.49-7.5-2.48-15.43-1.51-22.12a113.23,113.23,0,0,1,3.83-16.37l2-6.35c-3,9.43-6,19-6.4,29a46,46,0,0,0,1.69,14.75,32,32,0,0,0,7.16,13,30.92,30.92,0,0,0,2.69,2.59,32.71,32.71,0,0,0,3,2.21,33.83,33.83,0,0,0,6.65,3.39,48.24,48.24,0,0,0,14.58,3,62.22,62.22,0,0,0,7.47,0c2.49-.15,5-.47,7.42-.78,4.89-.6,9.9-1.13,14.67.05a18.22,18.22,0,0,1,6.58,3,11.41,11.41,0,0,1,4.19,5.69,10.78,10.78,0,0,1-.23,7,7.9,7.9,0,0,1-2,2.9,5.68,5.68,0,0,1-3,1.54A3.78,3.78,0,0,1,286,157a10.74,10.74,0,0,1-2.13-2.82,13.07,13.07,0,0,1-1.27-7,15.28,15.28,0,0,1,2.19-6.78,15,15,0,0,1,5.07-5,23.57,23.57,0,0,1,14-3.05,28.22,28.22,0,0,1,13.65,4.55,18.38,18.38,0,0,1,8.22,11.31c.49,2.35.6,4.85,1.13,7.36a12.69,12.69,0,0,0,1.31,3.71A6.7,6.7,0,0,0,331.11,162.13Z"/><path class="cls-4" d="M200,170.21q.82-.17,1.62-.26a5.06,5.06,0,0,1,.18-.63,13.56,13.56,0,0,1,.7-1.72,17.85,17.85,0,0,1,4.3-5.29,89.66,89.66,0,0,1,8.25-6,52.88,52.88,0,0,0,4.77-3.64,20,20,0,0,0,4.15-4.84,14.2,14.2,0,0,0,1.31-3,12.46,12.46,0,0,0,.35-1.62,10.2,10.2,0,0,0,.15-1.64,23.36,23.36,0,0,0-.84-6.41c-1-4.09-2.42-8-2.09-11.78,0-.23,0-.46.06-.69l.13-.67a8.93,8.93,0,0,1,.32-1.31,12.89,12.89,0,0,1,1.06-2.36,21.8,21.8,0,0,1,2.8-3.77c2-2.13,3.69-3.74,4.83-4.85a162,162,0,0,1,15.44-13c2.42-1.79,4.55-3.27,6.08-4.3L256,90.76a181.41,181.41,0,0,0-21,15.91c-1.65,1.45-3.27,2.93-4.87,4.44a48,48,0,0,0-4.59,4.76,14.14,14.14,0,0,0-3,5.93,16.57,16.57,0,0,0,.07,6.67c.4,2.18,1,4.3,1.52,6.43a23.3,23.3,0,0,1,.81,6.39l0,.8c0,.26-.08.52-.12.78a10.64,10.64,0,0,1-.34,1.54,12.93,12.93,0,0,1-1.3,2.88,19.5,19.5,0,0,1-4.28,4.73c-3.33,2.76-7.18,4.9-10.76,7.54a28.45,28.45,0,0,0-5,4.52,16.82,16.82,0,0,0-1.92,2.85A14.71,14.71,0,0,0,200,170.21Z"/><path class="cls-4" d="M340.8,377.52q-.07-.92-.05-1.79a6.1,6.1,0,0,1-.82-.56,9.45,9.45,0,0,1-.94-.75,12,12,0,0,1-1.18-1.13,21.38,21.38,0,0,1-4.85-9.11,33.22,33.22,0,0,1-1.16-7.06c-.17-2.57-.12-5.32,0-8.19.19-5.72.68-12.11-.86-18.44a43.53,43.53,0,0,0-3.18-9.2,46.51,46.51,0,0,0-2.33-4.28c-.8-1.41-1.77-2.71-2.69-4a58.81,58.81,0,0,0-13.15-12.68,61.32,61.32,0,0,0-13.53-7.09,72.11,72.11,0,0,0-9.92-2.9,89.53,89.53,0,0,0-15.38-1.87,113.71,113.71,0,0,0-14.9.45c-4.51.43-8.39,1-11.13,1.5s-4.36.81-4.36.81c13-2.59,26.36-3.73,39.48-1.84a83.28,83.28,0,0,1,9.69,2,67.26,67.26,0,0,1,9.31,3.35c.76.31,1.5.67,2.23,1.06s1.48.74,2.2,1.13c1.41.85,2.87,1.62,4.22,2.58A57.53,57.53,0,0,1,321.83,313a51.33,51.33,0,0,1,5,8.44,42.07,42.07,0,0,1,3.13,9.29l.27,1.2c.08.4.12.81.18,1.21l.32,2.43c.14,1.63.19,3.27.18,4.91,0,6.57-1,13.21-.11,19.94a29.19,29.19,0,0,0,3,9.68A18.07,18.07,0,0,0,340.8,377.52Z"/><path class="cls-4" d="M116.7,283q.46.73,1,1.45l1-.06c.68-.06,1.67-.19,2.93-.42a30.68,30.68,0,0,0,9.89-3.84,33.89,33.89,0,0,0,5.71-4.38,30.9,30.9,0,0,0,5-6.39,17.87,17.87,0,0,0,1-1.9l.48-1,.41-1a13.58,13.58,0,0,0,1.12-4.41,10.91,10.91,0,0,0,0-2.35,7.3,7.3,0,0,0-.65-2.33,5.15,5.15,0,0,0-1.57-1.95,4.45,4.45,0,0,0-2.39-.86,4,4,0,0,0-2.46.67A5.77,5.77,0,0,0,136.4,256a7.15,7.15,0,0,0-1,2.26,6.4,6.4,0,0,0-.17,2.47,6.15,6.15,0,0,0,.27,1.22,6.71,6.71,0,0,0,.57,1.12,7.63,7.63,0,0,0,1.59,1.84,11.08,11.08,0,0,0,4.23,2.19,22.64,22.64,0,0,0,9.14.43,33.45,33.45,0,0,0,8.34-2.26,32.46,32.46,0,0,0,11.93-8.64,46.07,46.07,0,0,0,5.49-8.37c2.25-4.2,4.4-8.94,7.38-13.08a37.13,37.13,0,0,1,10.57-9.76,37.63,37.63,0,0,1,10-4.31c1.3-.35,2.35-.57,3.08-.69l1.12-.19a37.91,37.91,0,0,0-17.52,7.49,36.56,36.56,0,0,0-6.81,6.8,57.74,57.74,0,0,0-5.08,8.19c-1.51,2.83-3,5.7-4.63,8.42a34,34,0,0,1-6,7.44A32.14,32.14,0,0,1,152,266.76a23.62,23.62,0,0,1-9.4-.22,11.34,11.34,0,0,1-4.15-2,5.65,5.65,0,0,1-1.38-8,4,4,0,0,1,3.51-2.08,3.66,3.66,0,0,1,1.92.75,4.18,4.18,0,0,1,1.24,1.71,8.85,8.85,0,0,1,.42,4.46,12.22,12.22,0,0,1-.51,2.24c-.24.73-.58,1.45-.86,2.18s-.7,1.4-1.05,2.11-.81,1.35-1.24,2a29.88,29.88,0,0,1-6.44,6.83A29.09,29.09,0,0,1,116.7,283Z"/><path class="cls-4" d="M289.3,208.68a8.73,8.73,0,0,1,1.35-.78s0-.13-.06-.38a3.85,3.85,0,0,1,0-1.1,5.89,5.89,0,0,1,2.2-3.53,10.59,10.59,0,0,1,6.1-1.89c2.48-.16,5.27.17,8.15-.21a11.88,11.88,0,0,0,4.19-1.32,16.72,16.72,0,0,0,3.48-2.59c2.06-2,3.81-4.06,5.53-5.9l7.62-8.36c5.84-6.44,13.95-14.84,13.95-14.84l-24.33,25.31c-2,2.1-4,4.26-6.55,5.57s-5.43,1.36-8.32,1.24-6-.3-8.92.94a7.91,7.91,0,0,0-3.6,3A5.89,5.89,0,0,0,289.3,208.68Z"/></g><circle id="_Ellipse_3" data-name="&lt;Ellipse&gt;" class="cls-11" cx="259.23" cy="236.68" r="141.82"/><path class="cls-3" d="M238,281.91a6.8,6.8,0,0,1-2.8-.61l-99.55-44.62,99.55-44.62a6.83,6.83,0,0,1,9.64,6.25v27.41H372.53a11,11,0,1,1,0,21.95H244.86v27.4A6.85,6.85,0,0,1,238,281.91Z"/><path class="cls-12" d="M238,191.95h0a6.35,6.35,0,0,1,6.34,6.35v27.91H372.53a10.47,10.47,0,1,1,0,20.95H244.36v27.91a6.33,6.33,0,0,1-8.94,5.79L136.9,236.68l98.53-44.17a6.31,6.31,0,0,1,2.6-.56m0-1a7.32,7.32,0,0,0-3,.65L134.45,236.68,235,281.76a7.33,7.33,0,0,0,10.35-6.7V248.16H372.53a11.47,11.47,0,1,0,0-22.95H245.36V198.3a7.35,7.35,0,0,0-7.34-7.35Z"/><rect class="cls-13" x="137.86" y="27.82" width="242.73" height="36.14" rx="8" ry="8"/><rect class="cls-13" x="205.36" y="410.32" width="109.09" height="21.82" rx="8" ry="8"/><circle class="cls-14" cx="44.45" cy="749.86" r="10.23"/><path class="cls-4" d="M40.42,743.57l4.9,3.79,1.33-1.07c.87-.71,2.15-1.76,3.76-3.19A52.83,52.83,0,0,0,56,737.42a30.48,30.48,0,0,0,5.39-9.28,23.42,23.42,0,0,0,1.34-6.2A19.05,19.05,0,0,0,62,715a19.92,19.92,0,0,0-3.38-6.5,31.52,31.52,0,0,0-5.22-5.18c-1.91-1.53-3.92-2.91-6-4.25s-4.11-2.63-6-4a33.09,33.09,0,0,1-5.22-4.82,18.54,18.54,0,0,1-3.59-5.94A11.86,11.86,0,0,1,32,681a11.06,11.06,0,0,1,.4-3.31A17.7,17.7,0,0,1,36,671.52c1.6-2,3.43-3.86,5-6a22.19,22.19,0,0,0,3.64-7.35,15.5,15.5,0,0,0,.09-8.2,12.61,12.61,0,0,0-4.6-6.63,9.75,9.75,0,0,0-7.64-1.91A9,9,0,0,0,26.56,646a8.09,8.09,0,0,0-.95,3.61,6.42,6.42,0,0,0,1,3.55,6.93,6.93,0,0,0,6,3.12,10.39,10.39,0,0,0,9.68-6.06,13.74,13.74,0,0,0,1.1-5,20.66,20.66,0,0,0-.36-4.53,36.36,36.36,0,0,0-2.07-6.87c-1.48-3.69-3.27-7.43-4.67-11.4a28.65,28.65,0,0,1-1.91-12.51c.44-4.27,2.27-8.15,2.86-12.13a28.31,28.31,0,0,0-.62-11.45A48.13,48.13,0,0,0,33,576.94c-1.35-2.74-2.71-5.08-3.87-7s-2.14-3.42-2.81-4.45l-1-1.59a113.31,113.31,0,0,1,8.07,13.83c2.24,4.82,4,10,4,15.31a26.92,26.92,0,0,1-1.05,7.82c-.71,2.55-1.64,5.08-2.13,7.77a23,23,0,0,0-.35,4.08,26.49,26.49,0,0,0,.38,4.07,44.34,44.34,0,0,0,2.16,7.82c.91,2.54,1.95,5,2.91,7.49a45,45,0,0,1,2.36,7.5,18.35,18.35,0,0,1,.17,7.58,11.44,11.44,0,0,1-1.32,3.42,7.61,7.61,0,0,1-2.46,2.5,9,9,0,0,1-6.77,1.33,4.86,4.86,0,0,1-2.69-1.68,4.46,4.46,0,0,1-.95-2.94A6.82,6.82,0,0,1,31,644.36a5.69,5.69,0,0,1,3.09-.79,7.12,7.12,0,0,1,3.2.89,9.87,9.87,0,0,1,4.45,5.14,11.94,11.94,0,0,1,.25,6.95,18.67,18.67,0,0,1-3.18,6.56c-1.49,2-3.36,3.85-5.18,5.92A22.08,22.08,0,0,0,29,676.37a15.12,15.12,0,0,0-.75,4.57,15.92,15.92,0,0,0,.74,4.53,23,23,0,0,0,4.36,7.61,40.24,40.24,0,0,0,6.15,5.83c2.26,1.72,4.46,3.14,6.61,4.68a53.71,53.71,0,0,1,6,4.8,19.54,19.54,0,0,1,4.23,5.67,13.48,13.48,0,0,1,1.28,6.57,18.71,18.71,0,0,1-1.71,6.76A25,25,0,0,1,52,733.46C48.79,737.23,44.67,740.36,40.42,743.57Z"/><path class="cls-4" d="M52.76,752.17a14.88,14.88,0,0,0-2.69,1.68,16.57,16.57,0,0,0-2.35,2.31l.38.78a7,7,0,0,0,.51.92,11.14,11.14,0,0,0,.81,1.19,16.44,16.44,0,0,0,7.25,5.39A16.79,16.79,0,0,0,63,765.6,18.7,18.7,0,0,0,70.31,764,25.71,25.71,0,0,0,82.4,752.12c1.41-2.66,2.53-5.37,4-7.72a18.71,18.71,0,0,1,5.94-5.91,21.09,21.09,0,0,1,8.53-3,20.41,20.41,0,0,1,9.47,1.15,23,23,0,0,1,14,14.35,19.12,19.12,0,0,1,.36,10.57,14.25,14.25,0,0,1-2.27,4.76,11.37,11.37,0,0,1-3.94,3.35,13.34,13.34,0,0,1-10.43.86,9.14,9.14,0,0,1-4.18-3,7.53,7.53,0,0,1-1.73-4.68,5.28,5.28,0,0,1,2-4.15,10,10,0,0,1,4.92-1.85,17.91,17.91,0,0,1,5.62.25,35.45,35.45,0,0,1,5.56,1.73c7.29,2.93,13.72,7.72,20.59,11.45a42.84,42.84,0,0,0,10.81,4.36,27.25,27.25,0,0,0,5.72.66,26.24,26.24,0,0,0,5.61-.69,31.5,31.5,0,0,0,9.78-4.52c2.89-2,5.38-4.24,7.87-6.28a38.77,38.77,0,0,1,7.63-5.2,19.26,19.26,0,0,1,8.18-2,16,16,0,0,1,12.94,5.72,14.39,14.39,0,0,1,3.23,10.31,10.51,10.51,0,0,1-4.56,7.94,6.87,6.87,0,0,1-8.93-1.26,5.87,5.87,0,0,1-1-4.78,9.45,9.45,0,0,1,2.3-4.42,9.75,9.75,0,0,1,1.91-1.64,13.74,13.74,0,0,1,2.18-1.27,15.88,15.88,0,0,1,4.84-1.29,25.13,25.13,0,0,1,9.82,1.13A43.87,43.87,0,0,1,228,771c5.53,3.09,10.74,6.42,16.25,8a23,23,0,0,0,8.15.92,23.49,23.49,0,0,0,7.3-1.83,41,41,0,0,0,10.5-6.76c2.69-2.28,4.66-4.28,6-5.64l2.08-2.12a105.69,105.69,0,0,1-9.14,8.63,49.72,49.72,0,0,1-5.11,3.65,33.4,33.4,0,0,1-5.63,2.74,24.77,24.77,0,0,1-6.1,1.3,22,22,0,0,1-6.2-.47,42.46,42.46,0,0,1-11.49-4.81c-3.66-2-7.17-4.32-11-6.07a31.42,31.42,0,0,0-12.3-3,15,15,0,0,0-11.67,4.79,9,9,0,0,0-2.19,6.21,5.93,5.93,0,0,0,1.23,3.23,6.6,6.6,0,0,0,2.77,2.06,7.8,7.8,0,0,0,6.66-.42,10.46,10.46,0,0,0,4.38-5,13.31,13.31,0,0,0,1-6.54,15.85,15.85,0,0,0-2-6.28,16,16,0,0,0-4.37-4.95,16.93,16.93,0,0,0-6-2.8,20.23,20.23,0,0,0-12.95,1.1c-4.06,1.73-7.42,4.51-10.66,7.13s-6.44,5.19-10.15,6.81A22.77,22.77,0,0,1,155.85,773a31.39,31.39,0,0,1-11.39-3.62c-7.27-3.75-13.88-9.08-21.77-12.7a38.93,38.93,0,0,0-6.14-2.26,21.07,21.07,0,0,0-6.75-.79,18.37,18.37,0,0,0-3.46.51,13.44,13.44,0,0,0-3.38,1.41,9.48,9.48,0,0,0-2.8,2.7l-.51.86c-.14.3-.26.61-.38.92A7.32,7.32,0,0,0,98.8,762c-.52,5.31,3.09,10,7.6,11.76a17,17,0,0,0,13.83-.7,15.26,15.26,0,0,0,5.49-4.62,18.41,18.41,0,0,0,3-6.38,23.69,23.69,0,0,0-.79-13.63,26.44,26.44,0,0,0-7.73-11.17A27.58,27.58,0,0,0,108,731.1a25.14,25.14,0,0,0-25,9.07c-2.86,3.8-4.28,7.92-6.34,11.07a20,20,0,0,1-8.05,7.31,13.86,13.86,0,0,1-5,1.33A11.26,11.26,0,0,1,58.8,759C55.65,757.78,53.21,755.07,52.76,752.17Z"/><path class="cls-4" d="M79.45,744q.94,1.2,1.94,2.35s.33-.17.9-.55A24.35,24.35,0,0,0,84.68,744,23.58,23.58,0,0,0,91,735.84a20.48,20.48,0,0,0,1.11-14.23,18.56,18.56,0,0,0-3.79-7.08,14.51,14.51,0,0,0-3.13-2.72,10.92,10.92,0,0,0-4.37-1.62,7.24,7.24,0,0,0-1.25,4.63,5.41,5.41,0,0,0,2,3.85,5,5,0,0,0,4,1.09,4.7,4.7,0,0,0,3.1-2.32,12.44,12.44,0,0,0,1.24-6.37,36.19,36.19,0,0,0-.35-4.59,40.63,40.63,0,0,0-.93-4.66A24.48,24.48,0,0,0,87,697.19a8.28,8.28,0,0,0-3.11-3.53c-1.32-.82-2.75-1.35-4-2.09a13.09,13.09,0,0,1-4.78-5,12.8,12.8,0,0,1-.81-1.86l-.22-.69a13.24,13.24,0,0,0,3.54,5.87,13.05,13.05,0,0,0,2.8,2.06c1,.56,2.08,1,3.06,1.61a9,9,0,0,1,4,5.3,35.41,35.41,0,0,1,1.5,6.69,36.31,36.31,0,0,1,.22,6.83,12.34,12.34,0,0,1-.64,3.25,5.23,5.23,0,0,1-1.74,2.53c-1.6,1.27-4.07.53-5.17-1.1a4.5,4.5,0,0,1-.74-2.83,5.77,5.77,0,0,1,.29-1.49c0-.11.1-.27.12-.32s.06-.12.08-.18a2,2,0,0,1,.2-.33,4.26,4.26,0,0,1,.62.19,8.5,8.5,0,0,1,1.14.51A10.75,10.75,0,0,1,85.43,714a14.58,14.58,0,0,1,3.16,4,17.92,17.92,0,0,1,2.09,9.93C90.21,734.81,85.51,741,79.45,744Z"/><path class="cls-4" d="M49.33,704.74a11,11,0,0,1-.6-3,2.45,2.45,0,0,1-1.48-.56,5,5,0,0,1-1.39-1.74,8.11,8.11,0,0,1-.83-3.1,12.91,12.91,0,0,1,2.85-8.12,14.23,14.23,0,0,1,3.84-3.43,12.92,12.92,0,0,1,2.44-1.14,7.49,7.49,0,0,1,2.58-.51,2.91,2.91,0,0,1,2.11.78,3.2,3.2,0,0,1,.83,2.2,3.49,3.49,0,0,1-.76,2.31,3.31,3.31,0,0,1-2.15,1.12,4.72,4.72,0,0,1-4.47-2,5.84,5.84,0,0,1-.5-4.91,8,8,0,0,1,2.86-3.81c1.22-1,2.46-1.85,3.46-2.8a24.26,24.26,0,0,0,4.11-5,25.65,25.65,0,0,0,3.48-8.91,25.06,25.06,0,0,0-2.33-15.75c-.39-.77-.74-1.37-1-1.77L62,644a24.46,24.46,0,0,1,3.95,11.53,23.45,23.45,0,0,1-2.17,11.89,23.93,23.93,0,0,1-7.63,9.26c-1.62,1.18-3.53,2.3-4.72,4.27a7.32,7.32,0,0,0-.55,6.54A6,6,0,0,0,56.52,691a5,5,0,0,0,3.37-1.34,5.11,5.11,0,0,0,1.46-3.36,5,5,0,0,0-1.12-3.54,4.7,4.7,0,0,0-3.45-1.55,9.54,9.54,0,0,0-3.39.55,14.17,14.17,0,0,0-3,1.35,16.34,16.34,0,0,0-7.68,10.45,15.21,15.21,0,0,0-.28,1.68,10.05,10.05,0,0,0,0,1.78,10.82,10.82,0,0,0,.85,3.42,7.82,7.82,0,0,0,2.2,3A5.64,5.64,0,0,0,49.33,704.74Z"/><path class="cls-4" d="M46.09,744.72a19,19,0,0,1,2.11-2.28l-.1-.15-.24-.48a12.08,12.08,0,0,1-.76-2c-.26-.93-.51-2.12-.79-3.56a23.38,23.38,0,0,0-1.42-5,9,9,0,0,0-4.7-4.76,18.5,18.5,0,0,0-7-1.06,28.55,28.55,0,0,1-7-.56,16.46,16.46,0,0,1-6.38-3.2,7.53,7.53,0,0,1-2-2.81,3.46,3.46,0,0,1-.05-3.06,2.37,2.37,0,0,1,1.12-.91,3.91,3.91,0,0,1,1.63-.2,25.62,25.62,0,0,1,3.69.69c2.43.57,4.84,1.48,6.27,3.28a5.87,5.87,0,0,1,1.2,3.1,3.78,3.78,0,0,1-.91,2.94A3.59,3.59,0,0,1,28,725.8,6.5,6.5,0,0,1,25.1,725a9.36,9.36,0,0,1-2.35-1.71,15.69,15.69,0,0,1-1.68-2.15,25.57,25.57,0,0,1-3.15-7.66c-1-3.86-1.5-8.17-2.52-12.29a114.26,114.26,0,0,0-3.5-11.54c-1.23-3.45-2.39-6.4-3.21-8.5l-1.31-3.34c2,5,3.93,10,5.56,15.08.81,2.55,1.55,5.12,2.15,7.73s1,5.24,1.45,7.89a57.41,57.41,0,0,0,1.68,7.91A20,20,0,0,0,22,723.68a10,10,0,0,0,3.42,2.48,6,6,0,0,0,4.35.32,4.54,4.54,0,0,0,1.91-1.31,4.64,4.64,0,0,0,1-2.1,6.66,6.66,0,0,0-.72-4.35,6.9,6.9,0,0,0-1.35-1.78,9.66,9.66,0,0,0-1.74-1.3A16.53,16.53,0,0,0,25,714a34,34,0,0,0-4-.93,6.08,6.08,0,0,0-2.33.11,4,4,0,0,0-2.13,1.4,4.07,4.07,0,0,0-.81,2.42,6.64,6.64,0,0,0,.4,2.31,9.41,9.41,0,0,0,2.48,3.71A18.38,18.38,0,0,0,26.08,727c2.81.74,5.62.61,8.2.78s5.06.61,6.64,2.16,2.15,4,2.58,6.58c.22,1.3.43,2.67.79,4.06A12.88,12.88,0,0,0,46.09,744.72Z"/><path class="cls-4" d="M44.86,751.12l-1.43-2.7-.59.18a7.67,7.67,0,0,1-1.53.29,5.42,5.42,0,0,1-2.29-.4,21.48,21.48,0,0,1-3.2-1.67,14.35,14.35,0,0,0-4.61-1.94,6.9,6.9,0,0,0-3,0,5.3,5.3,0,0,0-2.8,1.81,8.34,8.34,0,0,0-1.42,2.84,18.07,18.07,0,0,0-.59,3,17.62,17.62,0,0,0,.45,6.23,15.94,15.94,0,0,0,2.71,5.76,14.51,14.51,0,0,0,2.19,2.35,14.24,14.24,0,0,0,2.68,1.72,32.24,32.24,0,0,0,5.7,1.91,22.41,22.41,0,0,1,5.13,1.89c1.48.85,2.88,2,3.19,3.45a3.66,3.66,0,0,1-1.72,3.58,6.1,6.1,0,0,1-3.45.93,15,15,0,0,1-2.76-.29,32.22,32.22,0,0,1-9.18-3.27,33.68,33.68,0,0,1-7.59-5.53,33.06,33.06,0,0,1-4.55-5.42c-.5-.72-.85-1.33-1.09-1.74l-.37-.64a35.33,35.33,0,0,0,18.8,15.89c1,.34,2,.68,3,.92a18,18,0,0,0,3.14.6A8,8,0,0,0,43,780.6a5.29,5.29,0,0,0,2.69-2.09,3.84,3.84,0,0,0,.42-3.48,6.4,6.4,0,0,0-2.13-2.66,17.89,17.89,0,0,0-5.83-2.8,40.89,40.89,0,0,1-5.77-2.07A11.84,11.84,0,0,1,28,763.71a14.25,14.25,0,0,1-2.32-5.35,15.43,15.43,0,0,1-.16-5.83c.32-1.88.94-3.92,2.14-4.79s3-.65,4.69.14,3.32,2.16,5.46,3.11a8.48,8.48,0,0,0,3.65.78A13.88,13.88,0,0,0,44.86,751.12Z"/><path class="cls-4" d="M136.92,765.41l-.56,1.43,1.2.77c.77.48,1.89,1.18,3.33,1.92a18.71,18.71,0,0,0,5.32,1.84,11.27,11.27,0,0,0,6.62-.87,8.28,8.28,0,0,0,2.83-2.14,7.58,7.58,0,0,0,1.57-3.15,18.31,18.31,0,0,0,.45-3.32,21,21,0,0,0,0-3.15,12.42,12.42,0,0,0-1.51-5.17,14.46,14.46,0,0,0-2.17-2.92c-2.37-2.53-5.73-4.87-7.83-7.29a13.88,13.88,0,0,1-2.22-3.26,9.72,9.72,0,0,1-.43-1.06l-.14-.39a14.4,14.4,0,0,0,3.78,5.8c1.64,1.66,3.47,3.13,5.14,4.74a16.35,16.35,0,0,1,4,5.53,15.18,15.18,0,0,1,.8,6.74c-.19,2.27-.52,4.65-2,6.29a8.56,8.56,0,0,1-5.85,2.66,13,13,0,0,1-6.46-1.41A41.66,41.66,0,0,1,136.92,765.41Z"/><circle class="cls-15" cx="468.7" cy="477.49" r="9.25"/><path class="cls-4" d="M472.52,483.41l-4.78-3.88-1.2,1c-.78.64-1.95,1.59-3.41,2.9a48.06,48.06,0,0,0-5,5.17,27.82,27.82,0,0,0-4.91,8.47A21.42,21.42,0,0,0,452,502.7a17.47,17.47,0,0,0,.65,6.36,18.23,18.23,0,0,0,3.1,6,28.68,28.68,0,0,0,4.76,4.71c1.73,1.39,3.57,2.63,5.41,3.85s3.72,2.38,5.4,3.64a29.75,29.75,0,0,1,4.7,4.33,16.6,16.6,0,0,1,3.23,5.31,10.56,10.56,0,0,1,.59,2.93,9.84,9.84,0,0,1-.35,2.94,15.84,15.84,0,0,1-3.2,5.51c-1.44,1.76-3.09,3.49-4.56,5.48a20.19,20.19,0,0,0-3.3,6.69,14.13,14.13,0,0,0-.07,7.48,11.5,11.5,0,0,0,4.21,6,8.91,8.91,0,0,0,7,1.73,8.19,8.19,0,0,0,5.42-4.27,7.39,7.39,0,0,0,.86-3.3,5.87,5.87,0,0,0-.91-3.25,6.33,6.33,0,0,0-5.44-2.84,9.44,9.44,0,0,0-8.79,5.52,14.94,14.94,0,0,0-.66,8.65,32.85,32.85,0,0,0,1.88,6.21c1.35,3.33,3,6.71,4.24,10.3A25.88,25.88,0,0,1,477.88,604c-.4,3.86-2.05,7.37-2.58,11a25.61,25.61,0,0,0,.56,10.34,43.57,43.57,0,0,0,3.21,8.52c1.22,2.48,2.45,4.59,3.49,6.33s1.93,3.09,2.53,4l.93,1.44a102.43,102.43,0,0,1-7.28-12.51,33.91,33.91,0,0,1-3.6-13.83,24.3,24.3,0,0,1,1-7.06c.64-2.31,1.49-4.59,1.94-7a21.2,21.2,0,0,0,0-7.39,40.15,40.15,0,0,0-1.95-7.08c-.82-2.3-1.75-4.53-2.62-6.77a40.59,40.59,0,0,1-2.12-6.77,16.5,16.5,0,0,1-.14-6.81,10.25,10.25,0,0,1,1.18-3.06,6.78,6.78,0,0,1,2.2-2.23,8,8,0,0,1,6-1.18,4.28,4.28,0,0,1,2.37,1.48,3.91,3.91,0,0,1,.82,2.59,6,6,0,0,1-3,4.8,5,5,0,0,1-2.73.69,6.3,6.3,0,0,1-2.83-.79,8.78,8.78,0,0,1-3.95-4.57,10.64,10.64,0,0,1-.21-6.19,16.72,16.72,0,0,1,2.85-5.87c1.34-1.79,3-3.46,4.68-5.33a20.12,20.12,0,0,0,4.25-6.7,13.86,13.86,0,0,0,.69-4.2,14.58,14.58,0,0,0-.68-4.16,21,21,0,0,0-4-7,36.6,36.6,0,0,0-5.59-5.3c-2.05-1.56-4-2.85-6-4.25a48.29,48.29,0,0,1-5.36-4.32,17.41,17.41,0,0,1-3.76-5.07,11.94,11.94,0,0,1-1.12-5.83,16.66,16.66,0,0,1,1.53-6,22.36,22.36,0,0,1,3.5-5.41C465,489.12,468.68,486.3,472.52,483.41Z"/><path class="cls-4" d="M460.9,475.46a14.39,14.39,0,0,0,2.71-1.56,16,16,0,0,0,2.39-2.2l-.35-.72a6.55,6.55,0,0,0-.47-.85,10.34,10.34,0,0,0-.75-1.1,15.15,15.15,0,0,0-6.68-5,15.45,15.45,0,0,0-5.84-1.08,17.17,17.17,0,0,0-6.69,1.52,23.5,23.5,0,0,0-11,10.82c-1.28,2.42-2.28,4.87-3.6,7a16.68,16.68,0,0,1-5.29,5.28,18.83,18.83,0,0,1-7.61,2.7,18.23,18.23,0,0,1-8.46-1,20.56,20.56,0,0,1-12.51-12.83,17.1,17.1,0,0,1-.34-9.45,12.7,12.7,0,0,1,2-4.25,10.1,10.1,0,0,1,3.5-3,11.9,11.9,0,0,1,9.29-.78,8.1,8.1,0,0,1,3.71,2.63,6.66,6.66,0,0,1,1.54,4.13,4.63,4.63,0,0,1-1.78,3.65,8.93,8.93,0,0,1-4.38,1.65,16.06,16.06,0,0,1-5-.21,31.92,31.92,0,0,1-5-1.55c-6.57-2.64-12.39-7-18.61-10.33a38.82,38.82,0,0,0-9.8-3.94,24.72,24.72,0,0,0-5.19-.6,23.8,23.8,0,0,0-5.09.63,28.55,28.55,0,0,0-8.86,4.11c-2.62,1.79-4.87,3.84-7.11,5.69a35,35,0,0,1-6.88,4.71,17.37,17.37,0,0,1-7.38,1.79,14.4,14.4,0,0,1-11.68-5.15,13,13,0,0,1-2.93-9.3,9.49,9.49,0,0,1,4.11-7.18,6.21,6.21,0,0,1,8.08,1.14,5.31,5.31,0,0,1,.9,4.33,8.55,8.55,0,0,1-2.08,4,8.83,8.83,0,0,1-1.73,1.49,12.43,12.43,0,0,1-2,1.15,14.37,14.37,0,0,1-4.38,1.17,22.72,22.72,0,0,1-8.88-1,39.65,39.65,0,0,1-8-3.51c-5-2.8-9.71-5.81-14.69-7.26a20.78,20.78,0,0,0-7.36-.83,21.23,21.23,0,0,0-6.59,1.65,37.12,37.12,0,0,0-9.5,6.11c-2.43,2.06-4.22,3.87-5.45,5.09l-1.88,1.92a95.54,95.54,0,0,1,8.27-7.79,44.94,44.94,0,0,1,4.62-3.29,30.18,30.18,0,0,1,5.09-2.47,22.38,22.38,0,0,1,5.51-1.17,19.83,19.83,0,0,1,5.6.43,38.36,38.36,0,0,1,10.38,4.35c3.3,1.83,6.48,3.91,10,5.5a28.45,28.45,0,0,0,11.13,2.72,13.59,13.59,0,0,0,10.6-4.34,8.15,8.15,0,0,0,2-5.65,5.43,5.43,0,0,0-1.12-3,6,6,0,0,0-2.53-1.88,7.12,7.12,0,0,0-6.08.38,9.53,9.53,0,0,0-4,4.55,13.07,13.07,0,0,0,.91,11.66,14.56,14.56,0,0,0,4,4.5A15.39,15.39,0,0,0,327,472.2a18.38,18.38,0,0,0,11.77-1c3.69-1.57,6.73-4.09,9.67-6.46a40.59,40.59,0,0,1,9.15-6.13A20.45,20.45,0,0,1,368,456.69,28.25,28.25,0,0,1,378.23,460c6.56,3.38,12.53,8.21,19.68,11.5a35.34,35.34,0,0,0,5.57,2.06,19.21,19.21,0,0,0,6.15.73,16.78,16.78,0,0,0,3.16-.46,12.32,12.32,0,0,0,3.1-1.29,8.74,8.74,0,0,0,2.59-2.49l.47-.8c.13-.28.24-.56.35-.85a6.79,6.79,0,0,0,.44-1.79c.48-4.9-2.84-9.16-7-10.82a15.51,15.51,0,0,0-12.66.63,14,14,0,0,0-5,4.23,16.85,16.85,0,0,0-2.74,5.84,21.63,21.63,0,0,0,.71,12.44,24.13,24.13,0,0,0,7,10.2,25.16,25.16,0,0,0,11.09,5.6,23,23,0,0,0,22.8-8.28c2.62-3.48,3.9-7.21,5.75-10a17.78,17.78,0,0,1,7.18-6.51,12.25,12.25,0,0,1,4.43-1.17,9.9,9.9,0,0,1,4.28.76A8.28,8.28,0,0,1,460.9,475.46Z"/><path class="cls-4" d="M437.13,483q-.91-1.21-1.89-2.38s-.3.15-.82.5a22.15,22.15,0,0,0-2.17,1.58,21.44,21.44,0,0,0-5.77,7.46,18.62,18.62,0,0,0-1,12.94,16.87,16.87,0,0,0,3.46,6.43,13.2,13.2,0,0,0,2.85,2.47,10.36,10.36,0,0,0,1.71.87l.47.17.6.18q.62.15,1.24.26a9.87,9.87,0,0,0,.61-1.13,5.94,5.94,0,0,0,.24-.6c.07-.2.1-.34.15-.51a6.37,6.37,0,0,0,.16-2,5,5,0,0,0-1.8-3.51,4.52,4.52,0,0,0-3.65-1,4.28,4.28,0,0,0-2.82,2.12,11.26,11.26,0,0,0-1.11,5.77,32.66,32.66,0,0,0,.33,4.15,37.13,37.13,0,0,0,.85,4.21,22.23,22.23,0,0,0,1.46,4.17,7.49,7.49,0,0,0,2.81,3.18c1.19.74,2.48,1.22,3.58,1.89a11.82,11.82,0,0,1,4.31,4.55,11.55,11.55,0,0,1,.73,1.68l.2.63a12,12,0,0,0-3.19-5.31,11.81,11.81,0,0,0-2.53-1.87c-.92-.51-1.88-.93-2.76-1.46a8.13,8.13,0,0,1-3.57-4.79,32,32,0,0,1-1.34-6,32.77,32.77,0,0,1-.19-6.17,11.1,11.1,0,0,1,.58-2.92,4.67,4.67,0,0,1,1.56-2.26,3.3,3.3,0,0,1,4.59,1,4,4,0,0,1,.65,2.51,5.14,5.14,0,0,1-.26,1.33,2.2,2.2,0,0,1-.34.68,3.86,3.86,0,0,1-.55-.17l-.45-.19c-.17-.08-.34-.16-.5-.25a9.64,9.64,0,0,1-1.85-1.29,13.09,13.09,0,0,1-2.83-3.6,16.1,16.1,0,0,1-1.86-8.92C427.45,491.16,431.69,485.64,437.13,483Z"/><path class="cls-4" d="M464.28,518.14a10.85,10.85,0,0,1,.54,3,2.07,2.07,0,0,1,1.26.47,4.36,4.36,0,0,1,1.22,1.53,7.2,7.2,0,0,1,.74,2.75,11.55,11.55,0,0,1-2.53,7.27,12.76,12.76,0,0,1-3.44,3.09,11.58,11.58,0,0,1-2.19,1,6.69,6.69,0,0,1-2.3.47,2.55,2.55,0,0,1-1.85-.68,2.82,2.82,0,0,1-.74-1.93,3.08,3.08,0,0,1,.66-2,2.93,2.93,0,0,1,1.9-1,4.21,4.21,0,0,1,4,1.8,5.23,5.23,0,0,1,.46,4.4,7.19,7.19,0,0,1-2.57,3.44c-1.1.88-2.22,1.68-3.12,2.54a21.91,21.91,0,0,0-3.7,4.49,23.32,23.32,0,0,0-3.13,8.06,22.71,22.71,0,0,0,2.1,14.24c.35.7.67,1.24.9,1.6l.35.56a21.64,21.64,0,0,1,5.32-29.5c1.46-1.07,3.2-2.08,4.29-3.87a6.68,6.68,0,0,0,.51-6,5.52,5.52,0,0,0-5.18-3.27,4.62,4.62,0,0,0-3.11,1.23,4.71,4.71,0,0,0-1.35,3.09,4.6,4.6,0,0,0,1,3.26,4.35,4.35,0,0,0,3.18,1.44,8.73,8.73,0,0,0,3.1-.5,12.91,12.91,0,0,0,2.76-1.23,14.88,14.88,0,0,0,7-9.52,13.86,13.86,0,0,0,.25-1.53,9.22,9.22,0,0,0,0-1.63,9.91,9.91,0,0,0-.77-3.14,7.2,7.2,0,0,0-2-2.78A5.24,5.24,0,0,0,464.28,518.14Z"/><path class="cls-4" d="M467.34,482.06a18.61,18.61,0,0,1-2.15,2.21l.09.13.22.43a10.76,10.76,0,0,1,.68,1.79c.24.83.46,1.9.72,3.21a21.28,21.28,0,0,0,1.29,4.58,8.22,8.22,0,0,0,4.32,4.36,16.81,16.81,0,0,0,6.39,1,25.75,25.75,0,0,1,6.28.49,14.79,14.79,0,0,1,5.74,2.87,6.73,6.73,0,0,1,1.8,2.5,3.06,3.06,0,0,1,.06,2.7,2.07,2.07,0,0,1-1,.8,3.46,3.46,0,0,1-1.44.18,23.08,23.08,0,0,1-3.33-.62c-2.19-.51-4.36-1.33-5.64-2.93s-1.57-4-.27-5.4a3.21,3.21,0,0,1,2.45-1,5.84,5.84,0,0,1,2.62.7,8.44,8.44,0,0,1,2.12,1.54,14.16,14.16,0,0,1,1.52,1.93,23.12,23.12,0,0,1,2.86,6.91c.92,3.48,1.36,7.39,2.29,11.11a104.19,104.19,0,0,0,3.16,10.44c1.11,3.12,2.16,5.79,2.89,7.69l1.18,3c-1.77-4.51-3.54-9-5-13.64-.73-2.31-1.39-4.63-1.94-7s-.93-4.73-1.3-7.13a51.91,51.91,0,0,0-1.51-7.16,18.07,18.07,0,0,0-3.45-6.57,9.05,9.05,0,0,0-3.11-2.26,5.44,5.44,0,0,0-4-.3,4.17,4.17,0,0,0-1.76,1.2,4.26,4.26,0,0,0-.92,1.92,6.09,6.09,0,0,0,.66,4,6.31,6.31,0,0,0,1.23,1.63,8.81,8.81,0,0,0,1.59,1.19,15,15,0,0,0,3.54,1.45,30.78,30.78,0,0,0,3.67.85,5.57,5.57,0,0,0,2.14-.1,3.68,3.68,0,0,0,2-1.29,3.77,3.77,0,0,0,.75-2.24,6.1,6.1,0,0,0-.36-2.12,8.6,8.6,0,0,0-2.26-3.4,16.71,16.71,0,0,0-6.83-3.58,37.09,37.09,0,0,0-7.44-.72c-2.34-.12-4.54-.56-5.92-1.93s-1.9-3.54-2.29-5.88c-.2-1.18-.38-2.41-.71-3.68A11.78,11.78,0,0,0,467.34,482.06Z"/><path class="cls-4" d="M468.29,476.22l1.38,2.72.53-.16a6.83,6.83,0,0,1,1.35-.26,4.76,4.76,0,0,1,2,.34,19.22,19.22,0,0,1,2.88,1.49,13.11,13.11,0,0,0,4.21,1.76,6.35,6.35,0,0,0,2.8,0A4.9,4.9,0,0,0,486,480.4a7.64,7.64,0,0,0,1.3-2.61,16.43,16.43,0,0,0,.54-2.74,16,16,0,0,0-.42-5.67,13.36,13.36,0,0,0-6.91-8.92,29.15,29.15,0,0,0-5.17-1.72,20.23,20.23,0,0,1-4.64-1.69c-1.33-.76-2.59-1.79-2.88-3.09a3.28,3.28,0,0,1,1.54-3.21,5.49,5.49,0,0,1,3.1-.84,13.58,13.58,0,0,1,2.49.26,28.93,28.93,0,0,1,8.3,2.94,30.33,30.33,0,0,1,6.87,5,29.79,29.79,0,0,1,4.1,4.9c.45.65.77,1.2,1,1.57l.34.58a32,32,0,0,0-17-14.4c-.9-.31-1.81-.61-2.74-.84a16.26,16.26,0,0,0-2.84-.55,7.25,7.25,0,0,0-3,.29,4.83,4.83,0,0,0-2.46,1.9,3.52,3.52,0,0,0-.39,3.2,5.84,5.84,0,0,0,1.94,2.44,16.24,16.24,0,0,0,5.28,2.55,36.86,36.86,0,0,1,5.2,1.88,10.62,10.62,0,0,1,3.92,3.39,12.79,12.79,0,0,1,2.07,4.8,13.84,13.84,0,0,1,.13,5.23c-.29,1.69-.86,3.51-1.9,4.26s-2.61.56-4.12-.15-3-1.95-4.93-2.82a7.79,7.79,0,0,0-3.35-.72A12.71,12.71,0,0,0,468.29,476.22Z"/><path class="cls-4" d="M385.07,463.5l.58-1.42-1.09-.69c-.7-.44-1.71-1.07-3-1.73a17,17,0,0,0-4.83-1.66,10.23,10.23,0,0,0-6,.8,7.52,7.52,0,0,0-2.56,2,6.89,6.89,0,0,0-1.42,2.86,16.57,16.57,0,0,0-.4,3,19,19,0,0,0,0,2.85,11.24,11.24,0,0,0,1.38,4.68,13.06,13.06,0,0,0,2,2.64c2.15,2.29,5.18,4.4,7.09,6.59a12.52,12.52,0,0,1,2,2.95,8.76,8.76,0,0,1,.38,1l.13.35a13,13,0,0,0-3.41-5.25c-1.48-1.5-3.13-2.83-4.64-4.29a14.75,14.75,0,0,1-3.63-5,13.69,13.69,0,0,1-.71-6.08c.18-2.05.48-4.19,1.81-5.66A7.69,7.69,0,0,1,374,459a11.7,11.7,0,0,1,5.81,1.28A37.62,37.62,0,0,1,385.07,463.5Z"/><path class="cls-16" d="M61.26,54a38,38,0,0,1,5.08-.49c-2-1.66-2.15-1.46-2.24-2.44a3.28,3.28,0,0,1,.68-2.64c.29-2.24-2.64-3.22-3.12-3.32s-12.3-4.88-13.47-6.34c-.59,2.34.49,2.83.68,2.93s8,2.24,8.88,4.49c.59,1.17,2.44,1.07,2.44,1.07.39,0,.39.88,0,.78a6.14,6.14,0,0,1-2-.39,10.24,10.24,0,0,0-.59,2.54c0,.29,2.54.29,2.54.29.49,0,.39.68,0,.68a24,24,0,0,1-2.54-.2C57.16,50.94,58.33,53.38,61.26,54Z"/><path class="cls-16" d="M38.32,37.27c1.37,1.17,13.57,7.61,17.47,8.49,1.17,1.37,1.37,2.15.59,4.1-.2.68-.29,1,.29,2.24,0,0,1.66,2.64,3.81,3,2.34,0,6.25-.78,7.91-.1A4.21,4.21,0,0,1,69.85,58c.58,0,1,.13,1.07,1.07l.49,2.64-2.54.1c-1.17.2-1.07,1.76.59,1.27a7.77,7.77,0,0,1,2.54.1,3.36,3.36,0,0,1,1.07,1.27l-2.93.2c-1.07.39-.78,1.46.68,1.17l3.12.1s.78.49.88,1.07c-.88,0-2.93.1-2.93.1-1.27.29-1,1.68.68,1.27,0,0,2.54-.39,3.32.1s2.83,3.61,4.78,4A3.29,3.29,0,0,1,83.41,75c-.1.49-4,2.15-8.2.59S63.4,70.46,62.33,70.17s-8.88-3-9.47-5.08c-.1-2.24,4.1-7.32,4.1-7.32s-7.42,1-8.78-2.34c1-.49,5-.39,5-.39,1-.2.68-1.17-.2-1.07,0,0-6.25.59-6.73.1,0,0-5.47-2.34-5.17-5,1.85.49,6.54,2.54,10,2.44,1.17.2,1.46-1.07-.1-1,0,0-11.91-1-12.59-7.61,5.56,2.93,10.64,4.78,12.88,5,1.27.2,1.37-.78.1-1,0,0-12.79-2.54-13-8Z"/><line class="cls-17" x1="69.34" y1="76.34" x2="47.18" y2="76.34"/><line class="cls-17" x1="58.32" y1="72.48" x2="49.79" y2="72.48"/><text class="cls-18" transform="translate(186.49 56.44)">Mo<tspan class="cls-19" x="53.18" y="0">v</tspan><tspan x="66.64" y="0">ement</tspan></text><text class="cls-20" transform="translate(241.12 428.32)">Left</text><text class="cls-21" transform="translate(71.05 516.9)">With this amazing card, <tspan x="0" y="34.36">you will be able to perform som</tspan><tspan x="328.2" y="34.36">-</tspan><tspan x="0" y="68.73">thing that took thousands of years </tspan><tspan x="0" y="103.09">of evolution: walk leftward.</tspan></text></g></svg>